<?xml version="1.0" standalone="no"?>
<!DOCTYPE svg PUBLIC "-//W3C//DTD SVG 20010904//EN"
 "http://www.w3.org/TR/2001/REC-SVG-20010904/DTD/svg10.dtd">
<svg version="1.0" xmlns="http://www.w3.org/2000/svg"
 width="700.000000pt" height="700.000000pt" viewBox="0 0 700.000000 700.000000"
 preserveAspectRatio="xMidYMid meet">
<metadata>
Created by potrace 1.14, written by Peter Selinger 2001-2017
</metadata>
<g transform="translate(0.000000,700.000000) scale(0.100000,-0.100000)"
fill="#000000" stroke="none">
<path d="M4162 4999 c0 -654 -3 -963 -10 -968 -6 -3 -51 -6 -101 -5 l-91 1 0
-124 0 -123 -40 -1 c-22 -1 -51 -1 -65 -1 -14 0 -38 0 -55 1 l-30 1 0 115 0
115 -327 -2 -328 -3 0 -117 1 -118 -53 -1 c-29 0 -89 -1 -133 -1 -44 0 -93 1
-110 1 l-30 1 0 110 0 110 -127 1 c-268 1 -577 -2 -581 -6 -2 -2 -4 -140 -4
-307 l0 -303 86 -175 85 -175 4 -1259 3 -1258 -35 -27 c-20 -14 -45 -34 -56
-43 -11 -9 -68 -54 -126 -100 -58 -46 -176 -139 -263 -208 l-159 -125 1558 -3
c857 -1 1560 0 1563 3 2 2 5 413 6 913 l1 909 46 49 c25 27 75 81 110 119 119
131 144 158 191 209 26 28 48 56 49 61 0 6 1 350 1 765 l1 756 -70 134 -71
135 -124 3 -124 3 -44 -48 -43 -48 -166 0 -166 0 -3 998 -2 997 -84 0 -84 0 0
-961z"/>
</g>
</svg>
