<svg stroke-linejoin="round" stroke-miterlimit="2" viewBox="0 0 503 503" xmlns="http://www.w3.org/2000/svg"><path d="m0 0h503v503h-503z" fill="none" stroke-width="1.006"/><path d="m250 0c137.979 0 250 112.021 250 250s-112.021 250-250 250-250-112.021-250-250 112.021-250 250-250zm80.985 104.94c-6.205-2.669-12.805-4.346-19.537-4.959-12.668-1.154-25.802 1.452-37.648 8.291l-158.336 91.416c-11.872 6.854-20.712 16.957-26.048 28.54-2.828 6.138-4.672 12.693-5.459 19.401-1.548 13.174.974 26.939 8.101 39.3l46.928 81.4c17.606 30.54 56.685 41.024 87.213 23.399l158.338-91.416c30.518-17.62 41.007-56.711 23.405-87.242l-46.928-81.4c-7.143-12.39-17.822-21.479-30.029-26.73zm-33.681 26.987-28.128 104.975c-4.678 17.457-22.65 27.833-40.107 23.155l-104.941-28.119c2.005-2.021 4.309-3.813 6.892-5.304l158.338-91.416c2.554-1.475 5.225-2.566 7.946-3.291zm-181.97 129.866 105.682 28.318c34.045 9.123 69.091-11.111 78.213-45.156l28.339-105.762c2.512 2.253 4.714 4.936 6.491 8.017l46.928 81.4c9.029 15.663 3.649 35.718-12.008 44.757l-158.336 91.416c-15.647 9.034-35.677 3.66-44.702-11.993l-46.928-81.4c-1.769-3.069-2.985-6.307-3.679-9.597z" transform="matrix(1.000000216 0 0 1.000000216 1.4999963 1.4999963)"/></svg>