<svg stroke-linejoin="round" stroke-miterlimit="2" viewBox="0 0 503 503" xmlns="http://www.w3.org/2000/svg"><path d="m0 1.831c0-138.071-111.929-250-250-250s-250 111.929-250 250c0 117.245 80.715 215.622 189.606 242.638v-166.242h-51.552v-76.396h51.552v-32.919c0-85.092 38.508-124.532 122.048-124.532 15.838 0 43.167 3.105 54.347 6.211v69.254c-5.901-.621-16.149-.932-28.882-.932-40.993 0-56.832 15.528-56.832 55.9v27.018h81.659l-14.028 76.396h-67.631v171.773c123.786-14.951 219.713-120.351 219.713-248.169" transform="matrix(.994036 0 0 .997689 498.509 249.087)"/></svg>