<svg clip-rule="evenodd" fill-rule="evenodd" stroke-linejoin="round" stroke-miterlimit="2" viewBox="0 0 503 503" xmlns="http://www.w3.org/2000/svg"><path d="m0 0h503v503h-503z" fill="none"/><path d="m250 0c137.979 0 250 112.021 250 250s-112.021 250-250 250-250-112.021-250-250 112.021-250 250-250zm-96.663 110.166c-9.72 3.78-17.941 8.82-26.161 17.04-8.22 8.16-13.26 16.441-17.041 26.101-3.66 9.36-6.12 20.101-6.84 35.821-.72 15.721-.9 20.761-.9 60.842s.18 45.121.9 60.842c.72 15.72 3.24 26.461 6.84 35.821 3.781 9.72 8.821 17.941 17.041 26.161s16.441 13.26 26.161 17.04c9.36 3.661 20.101 6.121 35.821 6.841 15.721.72 20.761.9 60.842.9s45.121-.18 60.842-.9c15.72-.72 26.461-3.24 35.821-6.841 9.72-3.78 17.941-8.82 26.161-17.04s13.26-16.441 17.04-26.161c3.661-9.36 6.121-20.101 6.841-35.821.72-15.721.9-20.761.9-60.842s-.18-45.121-.9-60.842c-.72-15.72-3.24-26.461-6.841-35.821-3.78-9.66-8.82-17.941-16.98-26.101-8.22-8.22-16.441-13.26-26.161-17.04-9.36-3.661-20.101-6.121-35.821-6.841-15.721-.72-20.761-.9-60.842-.9s-45.121.18-60.842.9c-15.78.66-26.521 3.18-35.881 6.841zm156.305 19.68c14.4.66 22.201 3.06 27.421 5.1 6.9 2.7 11.82 5.881 16.98 11.041s8.341 10.08 11.041 16.98c2.04 5.22 4.44 13.021 5.1 27.421.72 15.541.84 20.221.84 59.642s-.18 44.101-.84 59.642c-.66 14.4-3.06 22.201-5.1 27.421-2.7 6.9-5.881 11.82-11.041 16.98s-10.08 8.341-16.98 11.041c-5.22 2.04-13.021 4.44-27.421 5.1-15.541.72-20.221.84-59.642.84s-44.101-.18-59.642-.84c-14.4-.66-22.201-3.06-27.421-5.1-6.9-2.7-11.82-5.881-16.98-11.041-5.161-5.16-8.341-10.08-11.041-16.98-2.04-5.22-4.44-13.021-5.1-27.421-.72-15.541-.84-20.221-.84-59.642s.18-44.101.84-59.642c.66-14.4 3.06-22.201 5.1-27.421 2.7-6.9 5.88-11.82 11.041-16.98 5.16-5.16 10.08-8.341 16.98-11.041 5.22-2.04 13.021-4.44 27.421-5.1 15.541-.72 20.221-.84 59.642-.84s44.101.12 59.642.84zm-135.424 120.184c0 41.881 33.961 75.782 75.782 75.782s75.782-33.961 75.782-75.782-33.901-75.782-75.782-75.782-75.782 33.901-75.782 75.782zm124.984 0c0 27.181-22.021 49.202-49.202 49.202s-49.202-22.021-49.202-49.202 22.021-49.202 49.202-49.202 49.202 22.021 49.202 49.202zm29.64-96.483c-9.769 0-17.7 7.931-17.7 17.7 0 9.77 7.931 17.701 17.7 17.701 9.77 0 17.701-7.931 17.701-17.701 0-9.769-7.931-17.7-17.701-17.7z" transform="translate(1.5 1.5)"/></svg>