<?xml version="1.0" encoding="UTF-8" standalone="no"?>
<!DOCTYPE svg PUBLIC "-//W3C//DTD SVG 1.1//EN" "http://www.w3.org/Graphics/SVG/1.1/DTD/svg11.dtd">
<svg width="100%" height="100%" viewBox="0 0 759 343" version="1.1" xmlns="http://www.w3.org/2000/svg" xmlns:xlink="http://www.w3.org/1999/xlink" xml:space="preserve" xmlns:serif="http://www.serif.com/" style="fill-rule:evenodd;clip-rule:evenodd;stroke-linecap:round;stroke-linejoin:round;stroke-miterlimit:1.5;">
    <g id="Artboard1" transform="matrix(0.988781,0,0,1.0042,-97.7077,-304.905)">
        <rect x="98.816" y="303.629" width="767.554" height="340.778" style="fill:none;"/>
        <g transform="matrix(1.01135,0,0,0.995815,-0.295611,1.89706)">
            <path d="M335.916,409.274L335.916,625.066" style="fill:none;stroke:black;stroke-width:6.25px;"/>
        </g>
        <g transform="matrix(1.01135,0,0,0.995815,-0.295611,1.89706)">
            <path d="M114.202,641.282L114.202,415.693L109.811,415.693C107.724,415.693 105.722,414.864 104.246,413.388C102.77,411.912 101.941,409.911 101.941,407.823L101.941,335.793L153.586,335.793L153.586,373.549L182.316,373.549L182.316,335.793L236.233,335.793" style="fill:none;stroke:black;stroke-width:6.25px;"/>
        </g>
        <g transform="matrix(1.01135,0,0,0.995815,-0.295611,1.89706)">
            <path d="M236.233,306.754L236.233,374.284L370.032,374.284L370.032,306.754L311.193,306.754L311.193,344.16L284.605,344.16L284.605,306.754L236.233,306.754Z" style="fill:none;stroke:black;stroke-width:6.25px;"/>
        </g>
        <g transform="matrix(0.819498,0,0,0.806914,-75.4273,288.448)">
            <g transform="matrix(56.6311,0,0,56.6311,540.129,296.658)">
                <path d="M0.275,0.618L0.283,0.613C0.303,0.623 0.325,0.63 0.35,0.635C0.375,0.64 0.399,0.643 0.423,0.643C0.479,0.643 0.535,0.627 0.59,0.596C0.645,0.565 0.698,0.526 0.749,0.478C0.8,0.429 0.848,0.374 0.894,0.311C0.94,0.249 0.982,0.187 1.021,0.125C1.06,0.063 1.095,0.004 1.126,-0.054C1.157,-0.111 1.183,-0.16 1.205,-0.2C1.205,-0.213 1.2,-0.215 1.19,-0.205C1.175,-0.192 1.15,-0.172 1.116,-0.145C1.082,-0.118 1.041,-0.092 0.994,-0.066C0.946,-0.04 0.893,-0.017 0.834,0.003C0.775,0.023 0.713,0.033 0.648,0.033C0.526,0.033 0.434,0.007 0.371,-0.044C0.309,-0.095 0.278,-0.164 0.278,-0.253C0.278,-0.288 0.288,-0.339 0.308,-0.408C0.328,-0.476 0.361,-0.549 0.408,-0.628C0.454,-0.706 0.515,-0.782 0.591,-0.856C0.667,-0.93 0.761,-0.991 0.873,-1.038C0.939,-1.064 1.005,-1.083 1.071,-1.093C1.137,-1.103 1.198,-1.108 1.253,-1.108C1.281,-1.108 1.312,-1.106 1.345,-1.103C1.378,-1.099 1.411,-1.094 1.443,-1.086C1.474,-1.079 1.503,-1.068 1.53,-1.055C1.557,-1.042 1.577,-1.026 1.593,-1.008C1.586,-0.979 1.575,-0.945 1.561,-0.904C1.547,-0.863 1.533,-0.828 1.52,-0.798L1.503,-0.793L1.5,-0.8C1.503,-0.81 1.506,-0.82 1.508,-0.83C1.509,-0.84 1.51,-0.851 1.51,-0.863C1.51,-0.893 1.501,-0.921 1.484,-0.948C1.466,-0.974 1.443,-0.998 1.413,-1.018C1.383,-1.038 1.348,-1.053 1.308,-1.064C1.268,-1.075 1.225,-1.08 1.18,-1.08C1.095,-1.08 1.016,-1.062 0.943,-1.026C0.869,-0.99 0.803,-0.943 0.743,-0.883C0.706,-0.848 0.667,-0.802 0.625,-0.746C0.583,-0.69 0.545,-0.63 0.509,-0.566C0.473,-0.502 0.443,-0.438 0.42,-0.373C0.397,-0.308 0.385,-0.248 0.385,-0.193C0.385,-0.126 0.408,-0.075 0.453,-0.04C0.498,-0.005 0.563,0.013 0.648,0.013C0.721,0.013 0.794,-0.003 0.868,-0.034C0.941,-0.065 1.008,-0.103 1.069,-0.149C1.13,-0.195 1.182,-0.245 1.228,-0.301C1.273,-0.357 1.304,-0.41 1.323,-0.46C1.329,-0.477 1.332,-0.489 1.331,-0.498C1.33,-0.506 1.321,-0.51 1.303,-0.51C1.274,-0.508 1.241,-0.506 1.203,-0.503C1.164,-0.499 1.123,-0.496 1.078,-0.493L1.07,-0.495L1.078,-0.523C1.111,-0.523 1.148,-0.523 1.189,-0.525C1.23,-0.527 1.27,-0.529 1.311,-0.531C1.352,-0.534 1.391,-0.538 1.429,-0.544C1.466,-0.55 1.5,-0.556 1.53,-0.563C1.537,-0.558 1.537,-0.55 1.53,-0.54C1.503,-0.533 1.485,-0.525 1.475,-0.516C1.465,-0.507 1.454,-0.491 1.443,-0.468C1.411,-0.406 1.375,-0.335 1.334,-0.256C1.293,-0.177 1.25,-0.098 1.206,-0.018C1.162,0.063 1.118,0.138 1.073,0.209C1.028,0.28 0.985,0.337 0.945,0.383C0.928,0.403 0.905,0.428 0.874,0.46C0.843,0.492 0.806,0.522 0.763,0.551C0.719,0.58 0.669,0.606 0.613,0.628C0.556,0.649 0.493,0.66 0.423,0.66C0.399,0.66 0.376,0.658 0.353,0.655C0.329,0.652 0.304,0.645 0.278,0.635L0.275,0.618Z" style="fill-rule:nonzero;"/>
            </g>
            <g transform="matrix(56.6311,0,0,56.6311,620.686,296.658)">
                <path d="M0.983,-0.343C0.944,-0.296 0.902,-0.249 0.856,-0.201C0.81,-0.154 0.764,-0.111 0.718,-0.073C0.671,-0.034 0.625,-0.003 0.579,0.02C0.533,0.043 0.491,0.055 0.453,0.055C0.419,0.055 0.396,0.047 0.383,0.03C0.369,0.013 0.363,-0.008 0.363,-0.033C0.363,-0.056 0.37,-0.087 0.384,-0.126C0.398,-0.165 0.419,-0.208 0.448,-0.253C0.426,-0.224 0.401,-0.194 0.373,-0.163C0.344,-0.131 0.315,-0.102 0.285,-0.076C0.255,-0.05 0.225,-0.029 0.195,-0.011C0.165,0.006 0.138,0.015 0.115,0.015C0.08,0.015 0.063,-0.003 0.063,-0.038C0.063,-0.076 0.078,-0.124 0.108,-0.183C0.137,-0.241 0.178,-0.297 0.229,-0.351C0.28,-0.405 0.337,-0.452 0.403,-0.491C0.468,-0.53 0.535,-0.55 0.605,-0.55C0.613,-0.567 0.621,-0.578 0.628,-0.585C0.634,-0.592 0.641,-0.597 0.648,-0.6L0.718,-0.62L0.723,-0.618C0.714,-0.609 0.706,-0.599 0.699,-0.586C0.691,-0.574 0.683,-0.561 0.675,-0.548C0.683,-0.548 0.696,-0.547 0.713,-0.545C0.729,-0.543 0.742,-0.542 0.75,-0.54C0.758,-0.537 0.763,-0.533 0.763,-0.528C0.763,-0.523 0.76,-0.52 0.755,-0.52C0.745,-0.523 0.73,-0.526 0.71,-0.528C0.69,-0.529 0.675,-0.53 0.665,-0.53C0.588,-0.395 0.532,-0.288 0.496,-0.209C0.46,-0.13 0.443,-0.071 0.443,-0.033C0.443,-0.018 0.446,-0.005 0.454,0.005C0.461,0.015 0.477,0.02 0.5,0.02C0.527,0.02 0.558,0.01 0.595,-0.009C0.632,-0.028 0.671,-0.055 0.713,-0.089C0.754,-0.123 0.797,-0.163 0.841,-0.208C0.885,-0.253 0.927,-0.3 0.968,-0.35C0.971,-0.355 0.974,-0.356 0.978,-0.354C0.981,-0.351 0.983,-0.347 0.983,-0.343ZM0.593,-0.533C0.536,-0.533 0.482,-0.513 0.43,-0.473C0.378,-0.433 0.332,-0.385 0.293,-0.331C0.253,-0.277 0.22,-0.223 0.196,-0.17C0.172,-0.117 0.16,-0.078 0.16,-0.053C0.16,-0.039 0.165,-0.033 0.175,-0.033C0.185,-0.033 0.2,-0.039 0.221,-0.053C0.242,-0.066 0.266,-0.084 0.293,-0.106C0.319,-0.129 0.346,-0.155 0.374,-0.185C0.401,-0.215 0.427,-0.248 0.45,-0.283C0.477,-0.323 0.502,-0.365 0.528,-0.41C0.553,-0.455 0.575,-0.495 0.595,-0.53L0.593,-0.533Z" style="fill-rule:nonzero;"/>
            </g>
            <g transform="matrix(56.6311,0,0,56.6311,661.036,296.658)">
                <path d="M0.678,-0.51C0.668,-0.498 0.657,-0.484 0.646,-0.468C0.635,-0.451 0.628,-0.438 0.625,-0.43C0.623,-0.425 0.62,-0.423 0.615,-0.423C0.613,-0.423 0.611,-0.425 0.608,-0.43C0.604,-0.435 0.6,-0.44 0.594,-0.446C0.588,-0.452 0.58,-0.458 0.57,-0.463C0.56,-0.468 0.546,-0.47 0.528,-0.47C0.506,-0.47 0.482,-0.463 0.455,-0.448C0.428,-0.432 0.405,-0.416 0.385,-0.398C0.353,-0.371 0.325,-0.342 0.301,-0.31C0.277,-0.278 0.254,-0.245 0.233,-0.211C0.211,-0.177 0.19,-0.142 0.17,-0.106C0.15,-0.07 0.128,-0.034 0.105,0.003C0.103,0.008 0.098,0.01 0.09,0.01C0.087,0.01 0.08,0.005 0.069,-0.005C0.058,-0.015 0.053,-0.023 0.053,-0.028C0.053,-0.038 0.058,-0.053 0.07,-0.073C0.097,-0.119 0.124,-0.166 0.151,-0.214C0.179,-0.261 0.205,-0.306 0.229,-0.348C0.253,-0.389 0.274,-0.425 0.293,-0.456C0.311,-0.487 0.323,-0.51 0.33,-0.525C0.338,-0.54 0.344,-0.548 0.348,-0.548C0.351,-0.548 0.359,-0.543 0.373,-0.535C0.386,-0.527 0.393,-0.515 0.393,-0.5C0.393,-0.495 0.39,-0.487 0.384,-0.475C0.378,-0.463 0.371,-0.451 0.364,-0.439C0.356,-0.426 0.349,-0.414 0.343,-0.403C0.336,-0.391 0.331,-0.383 0.328,-0.378C0.323,-0.369 0.322,-0.365 0.325,-0.365C0.328,-0.365 0.333,-0.368 0.338,-0.373C0.354,-0.389 0.375,-0.408 0.399,-0.428C0.423,-0.448 0.448,-0.466 0.475,-0.484C0.502,-0.501 0.528,-0.516 0.554,-0.528C0.58,-0.539 0.603,-0.545 0.623,-0.545C0.638,-0.545 0.65,-0.541 0.661,-0.534C0.672,-0.526 0.677,-0.518 0.678,-0.51Z" style="fill-rule:nonzero;"/>
            </g>
            <g transform="matrix(56.6311,0,0,56.6311,687.228,296.658)">
                <path d="M1.705,-1.663C1.705,-1.652 1.7,-1.643 1.69,-1.633C1.68,-1.622 1.673,-1.608 1.67,-1.59C1.667,-1.578 1.661,-1.573 1.653,-1.573C1.648,-1.573 1.643,-1.574 1.638,-1.576C1.633,-1.579 1.626,-1.582 1.619,-1.585C1.611,-1.588 1.602,-1.591 1.591,-1.594C1.58,-1.596 1.565,-1.598 1.545,-1.598C1.517,-1.598 1.488,-1.594 1.46,-1.586C1.432,-1.579 1.406,-1.567 1.383,-1.553C1.336,-1.523 1.285,-1.48 1.231,-1.425C1.177,-1.37 1.128,-1.31 1.083,-1.245C0.971,-1.085 0.873,-0.935 0.789,-0.796C0.705,-0.657 0.634,-0.533 0.578,-0.423C0.521,-0.313 0.478,-0.219 0.45,-0.141C0.422,-0.064 0.408,-0.007 0.408,0.03C0.408,0.058 0.414,0.082 0.426,0.1C0.439,0.118 0.459,0.128 0.488,0.128C0.533,0.128 0.575,0.113 0.616,0.085C0.657,0.057 0.696,0.021 0.733,-0.021C0.769,-0.064 0.802,-0.111 0.833,-0.163C0.863,-0.214 0.888,-0.263 0.91,-0.308C0.913,-0.314 0.919,-0.317 0.926,-0.315C0.934,-0.313 0.933,-0.307 0.925,-0.295C0.895,-0.235 0.863,-0.178 0.829,-0.124C0.795,-0.07 0.759,-0.022 0.721,0.019C0.684,0.06 0.645,0.092 0.604,0.115C0.563,0.138 0.523,0.15 0.483,0.15C0.438,0.15 0.404,0.138 0.383,0.114C0.361,0.09 0.35,0.058 0.35,0.02C0.35,-0.02 0.358,-0.063 0.374,-0.109C0.39,-0.155 0.414,-0.211 0.448,-0.278C0.401,-0.221 0.36,-0.173 0.325,-0.135C0.29,-0.097 0.259,-0.067 0.233,-0.045C0.206,-0.023 0.183,-0.008 0.164,0.001C0.145,0.01 0.128,0.015 0.113,0.015C0.089,0.015 0.073,0.009 0.065,-0.004C0.057,-0.016 0.053,-0.033 0.053,-0.053C0.053,-0.067 0.057,-0.087 0.065,-0.111C0.073,-0.135 0.085,-0.159 0.1,-0.183C0.162,-0.283 0.23,-0.364 0.306,-0.428C0.382,-0.491 0.476,-0.533 0.588,-0.553C0.668,-0.693 0.744,-0.818 0.818,-0.93C0.891,-1.042 0.971,-1.151 1.058,-1.258C1.129,-1.348 1.2,-1.427 1.271,-1.495C1.342,-1.563 1.415,-1.615 1.49,-1.65C1.547,-1.677 1.596,-1.69 1.638,-1.69C1.658,-1.69 1.674,-1.688 1.686,-1.683C1.699,-1.678 1.705,-1.671 1.705,-1.663ZM0.568,-0.515C0.504,-0.513 0.455,-0.501 0.421,-0.479C0.387,-0.456 0.357,-0.428 0.33,-0.395C0.267,-0.317 0.222,-0.25 0.195,-0.194C0.168,-0.138 0.155,-0.097 0.155,-0.07C0.155,-0.062 0.158,-0.056 0.165,-0.053C0.172,-0.049 0.177,-0.048 0.18,-0.048C0.192,-0.048 0.213,-0.06 0.244,-0.085C0.275,-0.11 0.309,-0.144 0.346,-0.186C0.384,-0.229 0.423,-0.278 0.463,-0.335C0.502,-0.392 0.538,-0.452 0.568,-0.515Z" style="fill-rule:nonzero;"/>
            </g>
            <g transform="matrix(56.6311,0,0,56.6311,725.596,296.658)">
                <path d="M0.753,-0.298C0.724,-0.263 0.69,-0.226 0.651,-0.189C0.612,-0.151 0.57,-0.117 0.524,-0.086C0.478,-0.055 0.43,-0.03 0.381,-0.011C0.332,0.008 0.283,0.018 0.235,0.018C0.157,0.018 0.118,-0.018 0.118,-0.088C0.118,-0.134 0.13,-0.185 0.154,-0.239C0.178,-0.293 0.209,-0.343 0.248,-0.389C0.286,-0.435 0.328,-0.473 0.374,-0.504C0.42,-0.535 0.463,-0.55 0.505,-0.55C0.528,-0.55 0.545,-0.546 0.554,-0.538C0.563,-0.529 0.568,-0.518 0.568,-0.505C0.568,-0.485 0.561,-0.463 0.549,-0.44C0.536,-0.417 0.518,-0.395 0.493,-0.374C0.468,-0.353 0.436,-0.335 0.398,-0.321C0.359,-0.307 0.313,-0.3 0.26,-0.3C0.252,-0.285 0.243,-0.261 0.233,-0.229C0.223,-0.196 0.218,-0.163 0.218,-0.13C0.218,-0.062 0.248,-0.028 0.31,-0.028C0.348,-0.028 0.388,-0.037 0.429,-0.055C0.47,-0.073 0.509,-0.096 0.548,-0.124C0.586,-0.151 0.621,-0.181 0.654,-0.214C0.686,-0.246 0.713,-0.277 0.735,-0.305C0.738,-0.308 0.742,-0.309 0.746,-0.308C0.75,-0.306 0.753,-0.303 0.753,-0.298ZM0.49,-0.493C0.49,-0.514 0.479,-0.525 0.458,-0.525C0.441,-0.525 0.424,-0.519 0.406,-0.506C0.389,-0.494 0.372,-0.478 0.355,-0.458C0.338,-0.438 0.323,-0.416 0.308,-0.393C0.293,-0.369 0.28,-0.347 0.27,-0.325C0.273,-0.323 0.279,-0.322 0.288,-0.321C0.296,-0.32 0.303,-0.32 0.308,-0.32C0.356,-0.32 0.398,-0.337 0.435,-0.371C0.472,-0.405 0.49,-0.446 0.49,-0.493Z" style="fill-rule:nonzero;"/>
            </g>
            <g transform="matrix(56.6311,0,0,56.6311,754.619,296.658)">
                <path d="M0.908,-0.323C0.878,-0.281 0.843,-0.239 0.804,-0.196C0.765,-0.154 0.723,-0.116 0.679,-0.083C0.635,-0.049 0.59,-0.022 0.544,-0C0.498,0.022 0.453,0.033 0.41,0.033C0.39,0.033 0.372,0.03 0.355,0.024C0.338,0.018 0.33,0.003 0.33,-0.02C0.33,-0.043 0.338,-0.073 0.355,-0.109C0.372,-0.145 0.391,-0.183 0.414,-0.223C0.436,-0.263 0.46,-0.303 0.484,-0.345C0.508,-0.387 0.528,-0.425 0.543,-0.46C0.546,-0.468 0.546,-0.475 0.544,-0.481C0.541,-0.487 0.536,-0.488 0.528,-0.483C0.509,-0.471 0.488,-0.455 0.463,-0.435C0.438,-0.415 0.412,-0.394 0.386,-0.371C0.36,-0.349 0.335,-0.326 0.311,-0.303C0.287,-0.279 0.268,-0.258 0.253,-0.24C0.226,-0.198 0.203,-0.16 0.184,-0.125C0.165,-0.09 0.141,-0.051 0.113,-0.008C0.106,0.003 0.101,0.008 0.098,0.008C0.089,0.008 0.082,-0.002 0.076,-0.02C0.07,-0.038 0.068,-0.05 0.068,-0.055C0.068,-0.07 0.078,-0.09 0.099,-0.116C0.12,-0.142 0.142,-0.171 0.168,-0.203C0.194,-0.256 0.222,-0.312 0.25,-0.371C0.278,-0.43 0.303,-0.483 0.323,-0.53C0.328,-0.538 0.335,-0.543 0.345,-0.543C0.355,-0.543 0.364,-0.538 0.373,-0.53C0.381,-0.522 0.385,-0.513 0.385,-0.503C0.385,-0.496 0.373,-0.473 0.349,-0.434C0.325,-0.395 0.301,-0.349 0.278,-0.298C0.309,-0.326 0.344,-0.356 0.381,-0.388C0.419,-0.419 0.455,-0.448 0.489,-0.475C0.523,-0.502 0.553,-0.524 0.579,-0.541C0.605,-0.559 0.623,-0.568 0.633,-0.568C0.639,-0.568 0.645,-0.564 0.651,-0.556C0.657,-0.549 0.66,-0.542 0.66,-0.535C0.66,-0.528 0.656,-0.518 0.648,-0.505C0.629,-0.478 0.607,-0.444 0.58,-0.403C0.553,-0.361 0.528,-0.318 0.504,-0.274C0.48,-0.23 0.459,-0.188 0.443,-0.148C0.426,-0.108 0.418,-0.076 0.418,-0.053C0.418,-0.033 0.422,-0.019 0.43,-0.011C0.438,-0.004 0.452,-0 0.47,-0C0.498,-0 0.532,-0.011 0.57,-0.033C0.608,-0.054 0.648,-0.081 0.689,-0.114C0.73,-0.146 0.768,-0.183 0.805,-0.223C0.842,-0.263 0.872,-0.301 0.895,-0.338C0.898,-0.343 0.903,-0.344 0.91,-0.341C0.917,-0.339 0.916,-0.333 0.908,-0.323Z" style="fill-rule:nonzero;"/>
            </g>
            <g transform="matrix(56.6311,0,0,56.6311,791.571,296.658)">
                <path d="M0.59,-0.885C0.59,-0.865 0.581,-0.845 0.564,-0.825C0.546,-0.805 0.527,-0.795 0.505,-0.795C0.485,-0.795 0.475,-0.805 0.475,-0.825C0.475,-0.847 0.483,-0.868 0.499,-0.888C0.515,-0.908 0.534,-0.918 0.558,-0.918C0.579,-0.918 0.59,-0.907 0.59,-0.885ZM0.703,-0.328C0.663,-0.276 0.617,-0.227 0.565,-0.18C0.513,-0.133 0.466,-0.096 0.423,-0.068C0.389,-0.046 0.355,-0.029 0.32,-0.018C0.285,-0.006 0.253,-0 0.225,-0C0.215,-0 0.203,-0.001 0.19,-0.003C0.177,-0.004 0.165,-0.008 0.154,-0.015C0.143,-0.022 0.134,-0.03 0.126,-0.041C0.119,-0.052 0.115,-0.067 0.115,-0.085C0.115,-0.107 0.123,-0.136 0.14,-0.174C0.157,-0.211 0.176,-0.25 0.199,-0.29C0.221,-0.33 0.244,-0.368 0.266,-0.405C0.289,-0.442 0.307,-0.469 0.32,-0.488C0.328,-0.501 0.343,-0.512 0.364,-0.521C0.385,-0.53 0.398,-0.535 0.405,-0.535C0.413,-0.535 0.418,-0.533 0.418,-0.528C0.418,-0.524 0.416,-0.519 0.414,-0.513C0.411,-0.506 0.408,-0.501 0.405,-0.498C0.383,-0.464 0.361,-0.428 0.339,-0.388C0.316,-0.347 0.296,-0.309 0.278,-0.271C0.259,-0.234 0.245,-0.199 0.234,-0.168C0.223,-0.136 0.218,-0.111 0.218,-0.093C0.218,-0.073 0.223,-0.058 0.234,-0.049C0.245,-0.04 0.259,-0.035 0.278,-0.035C0.311,-0.035 0.347,-0.046 0.388,-0.069C0.428,-0.091 0.467,-0.118 0.506,-0.15C0.545,-0.182 0.582,-0.215 0.615,-0.25C0.648,-0.285 0.674,-0.315 0.693,-0.34C0.701,-0.348 0.705,-0.35 0.706,-0.346C0.707,-0.342 0.706,-0.336 0.703,-0.328Z" style="fill-rule:nonzero;"/>
            </g>
            <g transform="matrix(56.6311,0,0,56.6311,817.196,296.658)">
                <path d="M0.908,-0.323C0.878,-0.281 0.843,-0.239 0.804,-0.196C0.765,-0.154 0.723,-0.116 0.679,-0.083C0.635,-0.049 0.59,-0.022 0.544,-0C0.498,0.022 0.453,0.033 0.41,0.033C0.39,0.033 0.372,0.03 0.355,0.024C0.338,0.018 0.33,0.003 0.33,-0.02C0.33,-0.043 0.338,-0.073 0.355,-0.109C0.372,-0.145 0.391,-0.183 0.414,-0.223C0.436,-0.263 0.46,-0.303 0.484,-0.345C0.508,-0.387 0.528,-0.425 0.543,-0.46C0.546,-0.468 0.546,-0.475 0.544,-0.481C0.541,-0.487 0.536,-0.488 0.528,-0.483C0.509,-0.471 0.488,-0.455 0.463,-0.435C0.438,-0.415 0.412,-0.394 0.386,-0.371C0.36,-0.349 0.335,-0.326 0.311,-0.303C0.287,-0.279 0.268,-0.258 0.253,-0.24C0.226,-0.198 0.203,-0.16 0.184,-0.125C0.165,-0.09 0.141,-0.051 0.113,-0.008C0.106,0.003 0.101,0.008 0.098,0.008C0.089,0.008 0.082,-0.002 0.076,-0.02C0.07,-0.038 0.068,-0.05 0.068,-0.055C0.068,-0.07 0.078,-0.09 0.099,-0.116C0.12,-0.142 0.142,-0.171 0.168,-0.203C0.194,-0.256 0.222,-0.312 0.25,-0.371C0.278,-0.43 0.303,-0.483 0.323,-0.53C0.328,-0.538 0.335,-0.543 0.345,-0.543C0.355,-0.543 0.364,-0.538 0.373,-0.53C0.381,-0.522 0.385,-0.513 0.385,-0.503C0.385,-0.496 0.373,-0.473 0.349,-0.434C0.325,-0.395 0.301,-0.349 0.278,-0.298C0.309,-0.326 0.344,-0.356 0.381,-0.388C0.419,-0.419 0.455,-0.448 0.489,-0.475C0.523,-0.502 0.553,-0.524 0.579,-0.541C0.605,-0.559 0.623,-0.568 0.633,-0.568C0.639,-0.568 0.645,-0.564 0.651,-0.556C0.657,-0.549 0.66,-0.542 0.66,-0.535C0.66,-0.528 0.656,-0.518 0.648,-0.505C0.629,-0.478 0.607,-0.444 0.58,-0.403C0.553,-0.361 0.528,-0.318 0.504,-0.274C0.48,-0.23 0.459,-0.188 0.443,-0.148C0.426,-0.108 0.418,-0.076 0.418,-0.053C0.418,-0.033 0.422,-0.019 0.43,-0.011C0.438,-0.004 0.452,-0 0.47,-0C0.498,-0 0.532,-0.011 0.57,-0.033C0.608,-0.054 0.648,-0.081 0.689,-0.114C0.73,-0.146 0.768,-0.183 0.805,-0.223C0.842,-0.263 0.872,-0.301 0.895,-0.338C0.898,-0.343 0.903,-0.344 0.91,-0.341C0.917,-0.339 0.916,-0.333 0.908,-0.323Z" style="fill-rule:nonzero;"/>
            </g>
            <g transform="matrix(56.6311,0,0,56.6311,854.148,296.658)">
                <path d="M0.725,-0.668C0.725,-0.653 0.721,-0.638 0.713,-0.623C0.629,-0.468 0.554,-0.33 0.488,-0.211C0.421,-0.092 0.358,0.018 0.298,0.119C0.238,0.22 0.178,0.317 0.12,0.411C0.062,0.505 0,0.606 -0.065,0.713C-0.118,0.798 -0.176,0.877 -0.239,0.951C-0.301,1.025 -0.37,1.09 -0.446,1.144C-0.522,1.198 -0.605,1.24 -0.694,1.271C-0.783,1.302 -0.881,1.318 -0.988,1.318C-1.066,1.318 -1.13,1.307 -1.181,1.286C-1.232,1.265 -1.272,1.238 -1.301,1.203C-1.33,1.168 -1.351,1.128 -1.363,1.083C-1.374,1.038 -1.38,0.991 -1.38,0.943C-1.38,0.923 -1.378,0.901 -1.375,0.879C-1.372,0.856 -1.368,0.838 -1.363,0.825C-1.361,0.818 -1.358,0.815 -1.353,0.815C-1.348,0.815 -1.345,0.819 -1.345,0.828C-1.348,0.839 -1.352,0.853 -1.355,0.869C-1.358,0.885 -1.36,0.902 -1.36,0.92C-1.36,0.978 -1.348,1.029 -1.323,1.071C-1.298,1.114 -1.263,1.149 -1.219,1.176C-1.175,1.204 -1.123,1.225 -1.063,1.239C-1.003,1.253 -0.938,1.26 -0.87,1.26C-0.798,1.26 -0.726,1.248 -0.654,1.225C-0.581,1.202 -0.509,1.163 -0.438,1.109C-0.366,1.055 -0.295,0.984 -0.226,0.898C-0.157,0.811 -0.089,0.704 -0.023,0.578C0.021,0.498 0.067,0.413 0.115,0.323C0.163,0.233 0.21,0.146 0.255,0.064C0.3,-0.019 0.34,-0.093 0.376,-0.159C0.412,-0.225 0.438,-0.273 0.455,-0.303C0.422,-0.258 0.389,-0.215 0.358,-0.175C0.326,-0.135 0.296,-0.1 0.269,-0.07C0.241,-0.04 0.215,-0.016 0.19,0.001C0.165,0.019 0.142,0.028 0.123,0.028C0.108,0.028 0.095,0.023 0.085,0.013C0.075,0.003 0.07,-0.013 0.07,-0.035C0.07,-0.06 0.08,-0.095 0.101,-0.141C0.122,-0.187 0.15,-0.235 0.184,-0.285C0.218,-0.335 0.257,-0.383 0.3,-0.428C0.343,-0.472 0.388,-0.506 0.433,-0.528C0.472,-0.548 0.513,-0.558 0.553,-0.558C0.564,-0.558 0.573,-0.557 0.58,-0.555C0.593,-0.578 0.607,-0.602 0.621,-0.625C0.635,-0.648 0.65,-0.673 0.665,-0.7C0.677,-0.722 0.688,-0.733 0.698,-0.733C0.704,-0.733 0.71,-0.725 0.716,-0.71C0.722,-0.695 0.725,-0.681 0.725,-0.668ZM0.565,-0.52C0.56,-0.522 0.553,-0.523 0.545,-0.523L0.528,-0.523C0.504,-0.523 0.482,-0.52 0.461,-0.516C0.44,-0.512 0.423,-0.503 0.408,-0.49C0.366,-0.455 0.33,-0.416 0.3,-0.373C0.27,-0.329 0.245,-0.287 0.225,-0.245C0.205,-0.203 0.19,-0.165 0.181,-0.131C0.172,-0.097 0.168,-0.073 0.168,-0.058C0.168,-0.039 0.173,-0.03 0.183,-0.03C0.193,-0.03 0.213,-0.044 0.243,-0.073C0.273,-0.101 0.306,-0.138 0.344,-0.185C0.381,-0.232 0.42,-0.284 0.46,-0.343C0.5,-0.401 0.535,-0.46 0.565,-0.52Z" style="fill-rule:nonzero;"/>
            </g>
            <g transform="matrix(56.6311,0,0,56.6311,916.442,296.658)">
                <path d="M1.065,-1.015C1.058,-0.998 1.05,-0.977 1.041,-0.95C1.032,-0.923 1.025,-0.901 1.02,-0.883C1.013,-0.879 1.008,-0.882 1.002,-0.89C1.008,-0.9 1.01,-0.913 1.01,-0.928C1.01,-0.958 0.995,-0.986 0.966,-1.012C0.937,-1.039 0.891,-1.053 0.828,-1.053C0.761,-1.053 0.707,-1.033 0.665,-0.994C0.623,-0.955 0.603,-0.903 0.603,-0.838C0.603,-0.788 0.614,-0.741 0.638,-0.698C0.661,-0.654 0.687,-0.614 0.715,-0.578C0.737,-0.549 0.755,-0.525 0.769,-0.506C0.783,-0.487 0.794,-0.47 0.803,-0.454C0.811,-0.438 0.817,-0.423 0.82,-0.409C0.823,-0.395 0.825,-0.378 0.825,-0.358C0.825,-0.323 0.817,-0.288 0.801,-0.255C0.785,-0.222 0.765,-0.191 0.739,-0.163C0.713,-0.134 0.685,-0.109 0.654,-0.086C0.623,-0.064 0.593,-0.046 0.563,-0.033C0.488,0.001 0.404,0.018 0.313,0.018C0.274,0.018 0.236,0.014 0.199,0.008C0.161,0.001 0.127,-0.01 0.095,-0.025C0.087,-0.03 0.079,-0.035 0.073,-0.039C0.066,-0.043 0.062,-0.047 0.06,-0.053C0.067,-0.081 0.075,-0.113 0.084,-0.149C0.093,-0.185 0.101,-0.214 0.108,-0.238C0.108,-0.241 0.11,-0.243 0.115,-0.243C0.12,-0.243 0.123,-0.238 0.123,-0.23C0.118,-0.215 0.115,-0.2 0.115,-0.185C0.115,-0.138 0.134,-0.097 0.173,-0.061C0.211,-0.025 0.27,-0.008 0.35,-0.008C0.38,-0.008 0.41,-0.01 0.441,-0.016C0.472,-0.022 0.5,-0.031 0.525,-0.043C0.577,-0.066 0.62,-0.099 0.656,-0.141C0.692,-0.184 0.71,-0.234 0.71,-0.293C0.71,-0.321 0.703,-0.35 0.69,-0.379C0.677,-0.408 0.651,-0.447 0.613,-0.495C0.579,-0.538 0.554,-0.577 0.536,-0.61C0.519,-0.643 0.51,-0.682 0.51,-0.725C0.51,-0.768 0.52,-0.812 0.539,-0.855C0.558,-0.898 0.582,-0.937 0.61,-0.97C0.62,-0.982 0.634,-0.995 0.651,-1.011C0.669,-1.027 0.69,-1.042 0.714,-1.055C0.738,-1.068 0.766,-1.08 0.799,-1.09C0.831,-1.1 0.868,-1.105 0.908,-1.105C0.934,-1.105 0.96,-1.101 0.985,-1.094C1.01,-1.086 1.033,-1.072 1.053,-1.05C1.061,-1.038 1.065,-1.027 1.065,-1.015Z" style="fill-rule:nonzero;"/>
            </g>
            <g transform="matrix(56.6311,0,0,56.6311,963.022,296.658)">
                <path d="M0.953,-0.425C0.924,-0.387 0.89,-0.352 0.849,-0.321C0.808,-0.29 0.762,-0.275 0.71,-0.275C0.682,-0.275 0.654,-0.282 0.626,-0.296C0.599,-0.31 0.577,-0.332 0.56,-0.36C0.548,-0.333 0.533,-0.303 0.515,-0.269C0.497,-0.235 0.475,-0.2 0.45,-0.166C0.425,-0.132 0.397,-0.101 0.366,-0.073C0.335,-0.044 0.303,-0.021 0.268,-0.003C0.238,0.011 0.213,0.018 0.193,0.018C0.133,0.018 0.102,-0.009 0.103,-0.063C0.102,-0.092 0.108,-0.123 0.119,-0.155C0.13,-0.187 0.143,-0.218 0.16,-0.248C0.177,-0.278 0.195,-0.306 0.214,-0.333C0.233,-0.359 0.251,-0.381 0.268,-0.398C0.303,-0.436 0.343,-0.468 0.388,-0.495C0.433,-0.522 0.481,-0.538 0.533,-0.543C0.536,-0.556 0.541,-0.571 0.548,-0.589C0.554,-0.606 0.566,-0.617 0.583,-0.62C0.591,-0.622 0.599,-0.623 0.608,-0.625C0.616,-0.627 0.623,-0.629 0.63,-0.633C0.635,-0.636 0.64,-0.636 0.645,-0.634C0.65,-0.631 0.651,-0.627 0.648,-0.62C0.636,-0.602 0.627,-0.578 0.621,-0.55C0.615,-0.522 0.613,-0.491 0.613,-0.458C0.613,-0.411 0.621,-0.373 0.639,-0.343C0.656,-0.313 0.687,-0.298 0.73,-0.298C0.773,-0.298 0.813,-0.312 0.848,-0.34C0.882,-0.368 0.912,-0.399 0.935,-0.433C0.938,-0.441 0.944,-0.443 0.951,-0.44C0.959,-0.437 0.959,-0.432 0.953,-0.425ZM0.54,-0.408C0.537,-0.423 0.534,-0.44 0.533,-0.46C0.531,-0.48 0.53,-0.499 0.53,-0.518C0.53,-0.526 0.527,-0.53 0.52,-0.53C0.502,-0.53 0.483,-0.524 0.463,-0.511C0.443,-0.499 0.423,-0.482 0.403,-0.461C0.383,-0.44 0.363,-0.417 0.343,-0.39C0.323,-0.363 0.304,-0.336 0.288,-0.308C0.266,-0.271 0.246,-0.231 0.229,-0.189C0.211,-0.146 0.203,-0.106 0.205,-0.068C0.205,-0.056 0.207,-0.045 0.211,-0.035C0.215,-0.025 0.225,-0.02 0.24,-0.02C0.268,-0.02 0.299,-0.036 0.333,-0.068C0.366,-0.099 0.397,-0.136 0.428,-0.179C0.458,-0.221 0.483,-0.264 0.504,-0.308C0.525,-0.351 0.537,-0.384 0.54,-0.408Z" style="fill-rule:nonzero;"/>
            </g>
            <g transform="matrix(56.6311,0,0,56.6311,998.416,296.658)">
                <path d="M0.775,-0.335C0.75,-0.303 0.722,-0.271 0.69,-0.239C0.658,-0.206 0.626,-0.175 0.593,-0.146C0.559,-0.117 0.525,-0.091 0.49,-0.068C0.455,-0.044 0.422,-0.026 0.39,-0.013C0.365,-0.003 0.342,0.005 0.321,0.009C0.3,0.013 0.281,0.015 0.263,0.015C0.171,0.015 0.125,-0.023 0.125,-0.1C0.125,-0.13 0.132,-0.162 0.145,-0.195C0.177,-0.273 0.221,-0.343 0.279,-0.404C0.336,-0.465 0.398,-0.509 0.465,-0.538C0.485,-0.546 0.502,-0.55 0.515,-0.55C0.577,-0.55 0.608,-0.526 0.608,-0.478C0.608,-0.452 0.602,-0.433 0.59,-0.42C0.58,-0.41 0.563,-0.396 0.54,-0.378L0.533,-0.38C0.538,-0.393 0.54,-0.408 0.54,-0.423C0.54,-0.439 0.534,-0.455 0.521,-0.47C0.509,-0.485 0.489,-0.493 0.463,-0.493C0.431,-0.493 0.4,-0.482 0.371,-0.461C0.342,-0.44 0.316,-0.413 0.294,-0.379C0.271,-0.345 0.253,-0.305 0.24,-0.261C0.227,-0.217 0.22,-0.172 0.22,-0.125C0.22,-0.09 0.23,-0.064 0.249,-0.046C0.268,-0.029 0.292,-0.02 0.32,-0.02C0.367,-0.02 0.43,-0.047 0.509,-0.101C0.588,-0.155 0.673,-0.238 0.763,-0.348C0.771,-0.356 0.777,-0.358 0.781,-0.354C0.785,-0.35 0.783,-0.343 0.775,-0.335Z" style="fill-rule:nonzero;"/>
            </g>
            <g transform="matrix(56.6311,0,0,56.6311,1028.71,296.658)">
                <path d="M0.59,-0.885C0.59,-0.865 0.581,-0.845 0.564,-0.825C0.546,-0.805 0.527,-0.795 0.505,-0.795C0.485,-0.795 0.475,-0.805 0.475,-0.825C0.475,-0.847 0.483,-0.868 0.499,-0.888C0.515,-0.908 0.534,-0.918 0.558,-0.918C0.579,-0.918 0.59,-0.907 0.59,-0.885ZM0.703,-0.328C0.663,-0.276 0.617,-0.227 0.565,-0.18C0.513,-0.133 0.466,-0.096 0.423,-0.068C0.389,-0.046 0.355,-0.029 0.32,-0.018C0.285,-0.006 0.253,-0 0.225,-0C0.215,-0 0.203,-0.001 0.19,-0.003C0.177,-0.004 0.165,-0.008 0.154,-0.015C0.143,-0.022 0.134,-0.03 0.126,-0.041C0.119,-0.052 0.115,-0.067 0.115,-0.085C0.115,-0.107 0.123,-0.136 0.14,-0.174C0.157,-0.211 0.176,-0.25 0.199,-0.29C0.221,-0.33 0.244,-0.368 0.266,-0.405C0.289,-0.442 0.307,-0.469 0.32,-0.488C0.328,-0.501 0.343,-0.512 0.364,-0.521C0.385,-0.53 0.398,-0.535 0.405,-0.535C0.413,-0.535 0.418,-0.533 0.418,-0.528C0.418,-0.524 0.416,-0.519 0.414,-0.513C0.411,-0.506 0.408,-0.501 0.405,-0.498C0.383,-0.464 0.361,-0.428 0.339,-0.388C0.316,-0.347 0.296,-0.309 0.278,-0.271C0.259,-0.234 0.245,-0.199 0.234,-0.168C0.223,-0.136 0.218,-0.111 0.218,-0.093C0.218,-0.073 0.223,-0.058 0.234,-0.049C0.245,-0.04 0.259,-0.035 0.278,-0.035C0.311,-0.035 0.347,-0.046 0.388,-0.069C0.428,-0.091 0.467,-0.118 0.506,-0.15C0.545,-0.182 0.582,-0.215 0.615,-0.25C0.648,-0.285 0.674,-0.315 0.693,-0.34C0.701,-0.348 0.705,-0.35 0.706,-0.346C0.707,-0.342 0.706,-0.336 0.703,-0.328Z" style="fill-rule:nonzero;"/>
            </g>
            <g transform="matrix(56.6311,0,0,56.6311,1054.34,296.658)">
                <path d="M0.753,-0.298C0.724,-0.263 0.69,-0.226 0.651,-0.189C0.612,-0.151 0.57,-0.117 0.524,-0.086C0.478,-0.055 0.43,-0.03 0.381,-0.011C0.332,0.008 0.283,0.018 0.235,0.018C0.157,0.018 0.118,-0.018 0.118,-0.088C0.118,-0.134 0.13,-0.185 0.154,-0.239C0.178,-0.293 0.209,-0.343 0.248,-0.389C0.286,-0.435 0.328,-0.473 0.374,-0.504C0.42,-0.535 0.463,-0.55 0.505,-0.55C0.528,-0.55 0.545,-0.546 0.554,-0.538C0.563,-0.529 0.568,-0.518 0.568,-0.505C0.568,-0.485 0.561,-0.463 0.549,-0.44C0.536,-0.417 0.518,-0.395 0.493,-0.374C0.468,-0.353 0.436,-0.335 0.398,-0.321C0.359,-0.307 0.313,-0.3 0.26,-0.3C0.252,-0.285 0.243,-0.261 0.233,-0.229C0.223,-0.196 0.218,-0.163 0.218,-0.13C0.218,-0.062 0.248,-0.028 0.31,-0.028C0.348,-0.028 0.388,-0.037 0.429,-0.055C0.47,-0.073 0.509,-0.096 0.548,-0.124C0.586,-0.151 0.621,-0.181 0.654,-0.214C0.686,-0.246 0.713,-0.277 0.735,-0.305C0.738,-0.308 0.742,-0.309 0.746,-0.308C0.75,-0.306 0.753,-0.303 0.753,-0.298ZM0.49,-0.493C0.49,-0.514 0.479,-0.525 0.458,-0.525C0.441,-0.525 0.424,-0.519 0.406,-0.506C0.389,-0.494 0.372,-0.478 0.355,-0.458C0.338,-0.438 0.323,-0.416 0.308,-0.393C0.293,-0.369 0.28,-0.347 0.27,-0.325C0.273,-0.323 0.279,-0.322 0.288,-0.321C0.296,-0.32 0.303,-0.32 0.308,-0.32C0.356,-0.32 0.398,-0.337 0.435,-0.371C0.472,-0.405 0.49,-0.446 0.49,-0.493Z" style="fill-rule:nonzero;"/>
            </g>
            <g transform="matrix(56.6311,0,0,56.6311,1083.36,296.658)">
                <path d="M0.705,-0.913C0.692,-0.909 0.677,-0.903 0.66,-0.894C0.643,-0.885 0.631,-0.873 0.623,-0.86C0.584,-0.807 0.547,-0.751 0.511,-0.693C0.475,-0.634 0.441,-0.576 0.408,-0.518L0.718,-0.518C0.723,-0.514 0.725,-0.511 0.725,-0.508C0.725,-0.504 0.723,-0.502 0.72,-0.5C0.707,-0.5 0.687,-0.5 0.66,-0.499C0.633,-0.498 0.604,-0.497 0.573,-0.495C0.541,-0.493 0.508,-0.492 0.475,-0.49C0.442,-0.488 0.413,-0.487 0.388,-0.485C0.341,-0.402 0.305,-0.331 0.28,-0.273C0.255,-0.214 0.243,-0.163 0.243,-0.12C0.243,-0.06 0.27,-0.03 0.325,-0.03C0.352,-0.03 0.382,-0.037 0.416,-0.051C0.45,-0.065 0.487,-0.084 0.525,-0.108C0.53,-0.113 0.535,-0.112 0.54,-0.106C0.545,-0.1 0.543,-0.096 0.535,-0.093C0.478,-0.056 0.426,-0.029 0.378,-0.013C0.329,0.004 0.28,0.013 0.23,0.013C0.203,0.013 0.18,0.005 0.16,-0.011C0.14,-0.027 0.13,-0.054 0.13,-0.093C0.13,-0.126 0.145,-0.175 0.175,-0.24C0.205,-0.305 0.249,-0.385 0.308,-0.48C0.288,-0.478 0.263,-0.476 0.234,-0.474C0.205,-0.471 0.188,-0.47 0.183,-0.47C0.174,-0.47 0.17,-0.473 0.17,-0.48C0.177,-0.492 0.188,-0.503 0.203,-0.515L0.33,-0.518C0.345,-0.543 0.362,-0.57 0.38,-0.601C0.398,-0.632 0.417,-0.663 0.435,-0.694C0.453,-0.725 0.472,-0.755 0.491,-0.784C0.51,-0.813 0.528,-0.84 0.543,-0.865C0.561,-0.873 0.586,-0.884 0.619,-0.898C0.651,-0.911 0.68,-0.922 0.705,-0.93C0.708,-0.93 0.711,-0.928 0.713,-0.924C0.714,-0.92 0.712,-0.916 0.705,-0.913Z" style="fill-rule:nonzero;"/>
            </g>
            <g transform="matrix(56.6311,0,0,56.6311,1111.4,296.658)">
                <path d="M0.16,-0.028C0.137,-0.028 0.118,-0.033 0.105,-0.043C0.092,-0.053 0.085,-0.068 0.085,-0.088C0.085,-0.121 0.105,-0.17 0.146,-0.236C0.187,-0.302 0.237,-0.38 0.295,-0.47C0.302,-0.478 0.307,-0.485 0.311,-0.489C0.315,-0.493 0.32,-0.497 0.325,-0.5C0.333,-0.502 0.345,-0.504 0.359,-0.506C0.373,-0.509 0.382,-0.51 0.385,-0.51C0.392,-0.51 0.395,-0.507 0.395,-0.503C0.335,-0.398 0.285,-0.312 0.244,-0.246C0.203,-0.18 0.183,-0.129 0.183,-0.093C0.183,-0.073 0.192,-0.063 0.21,-0.063C0.218,-0.063 0.229,-0.065 0.243,-0.07C0.256,-0.075 0.27,-0.082 0.285,-0.09C0.3,-0.098 0.314,-0.107 0.328,-0.116C0.341,-0.125 0.351,-0.134 0.358,-0.143C0.373,-0.158 0.395,-0.193 0.424,-0.249C0.453,-0.305 0.488,-0.37 0.53,-0.445C0.55,-0.482 0.569,-0.513 0.586,-0.538C0.604,-0.563 0.618,-0.575 0.63,-0.575C0.637,-0.572 0.643,-0.563 0.649,-0.55C0.655,-0.537 0.658,-0.523 0.658,-0.51C0.658,-0.503 0.65,-0.488 0.635,-0.464C0.62,-0.44 0.601,-0.411 0.578,-0.379C0.554,-0.346 0.529,-0.312 0.501,-0.275C0.474,-0.238 0.448,-0.204 0.423,-0.173C0.363,-0.081 0.302,0.014 0.241,0.111C0.18,0.209 0.119,0.303 0.058,0.394C-0.004,0.485 -0.068,0.57 -0.133,0.651C-0.198,0.732 -0.265,0.802 -0.334,0.863C-0.403,0.923 -0.475,0.97 -0.549,1.005C-0.623,1.04 -0.701,1.058 -0.783,1.058C-0.831,1.058 -0.874,1.046 -0.913,1.023C-0.951,0.999 -0.97,0.958 -0.97,0.9C-0.97,0.887 -0.969,0.873 -0.966,0.859C-0.964,0.845 -0.961,0.833 -0.958,0.825C-0.956,0.82 -0.953,0.817 -0.95,0.815C-0.947,0.813 -0.945,0.816 -0.945,0.823C-0.945,0.868 -0.928,0.908 -0.895,0.945C-0.862,0.982 -0.802,1 -0.718,1C-0.649,1 -0.581,0.983 -0.514,0.949C-0.446,0.915 -0.38,0.869 -0.316,0.813C-0.252,0.756 -0.19,0.69 -0.13,0.615C-0.07,0.54 -0.012,0.462 0.044,0.38C0.1,0.298 0.153,0.216 0.203,0.134C0.253,0.051 0.298,-0.027 0.34,-0.1C0.343,-0.107 0.343,-0.109 0.34,-0.108C0.337,-0.106 0.334,-0.104 0.333,-0.103C0.314,-0.088 0.289,-0.071 0.258,-0.054C0.226,-0.036 0.193,-0.028 0.16,-0.028Z" style="fill-rule:nonzero;"/>
            </g>
        </g>
        <g transform="matrix(0.534957,0,0,0.526742,283.963,296.839)">
            <g transform="matrix(124.024,0,0,124.024,394.589,274.309)">
                <path d="M0.571,-0L0.824,-0L0.518,-0.78L0.313,-0.78L0.006,-0L0.254,-0L0.28,-0.07L0.545,-0.07L0.571,-0ZM0.349,-0.26L0.411,-0.427L0.474,-0.26L0.349,-0.26Z" style="fill-rule:nonzero;"/>
            </g>
            <g transform="matrix(124.024,0,0,124.024,469.004,274.309)">
                <path d="M0.522,-0.78L0.398,-0.56L0.273,-0.78L0.008,-0.78L0.271,-0.312L0.271,-0L0.521,-0L0.521,-0.312L0.787,-0.78L0.522,-0.78Z" style="fill-rule:nonzero;"/>
            </g>
            <g transform="matrix(124.024,0,0,124.024,567.602,274.309)">
                <path d="M0.543,-0.78L0.022,-0.78L0.022,-0.565L0.158,-0.565L0.158,-0L0.408,-0L0.408,-0.565L0.543,-0.565L0.543,-0.78Z" style="fill-rule:nonzero;"/>
            </g>
            <g transform="matrix(124.024,0,0,124.024,627.754,274.309)">
                <path d="M0.464,0.015C0.728,0.015 0.9,-0.157 0.9,-0.396C0.9,-0.634 0.728,-0.795 0.464,-0.795C0.203,-0.795 0.028,-0.623 0.028,-0.386C0.028,-0.147 0.203,0.015 0.464,0.015ZM0.464,-0.21C0.36,-0.21 0.283,-0.284 0.283,-0.391C0.283,-0.496 0.36,-0.57 0.464,-0.57C0.57,-0.57 0.644,-0.496 0.644,-0.391C0.644,-0.284 0.57,-0.21 0.464,-0.21Z" style="fill-rule:nonzero;"/>
            </g>
            <g transform="matrix(124.024,0,0,124.024,737.887,274.309)">
                <path d="M0.518,-0.78L0.518,-0.43L0.226,-0.78L0.05,-0.78L0.05,-0L0.29,-0L0.29,-0.352L0.582,-0L0.758,-0L0.758,-0.78L0.518,-0.78Z" style="fill-rule:nonzero;"/>
            </g>
        </g>
        <g transform="matrix(1.01135,0,0,0.995815,-0.295611,1.89706)">
            <path d="M361.33,374.284L361.33,379.954C361.33,383.351 359.981,386.608 357.579,389.01C355.177,391.413 351.919,392.762 348.522,392.762C320.102,392.762 254.26,392.762 254.26,392.762" style="fill:none;stroke:black;stroke-width:6.25px;"/>
        </g>
        <g transform="matrix(0.903739,0,0,0.88986,27.0646,59.9552)">
            <path d="M361.33,374.284L361.33,380.862C361.33,387.434 356.002,392.762 349.43,392.762C326.154,392.762 276.856,392.762 276.856,392.762" style="fill:none;stroke:black;stroke-width:6.99px;"/>
        </g>
        <g transform="matrix(1.01135,0,0,0.995815,-0.295611,1.89706)">
            <path d="M231.297,448.835C239.864,448.913 244.824,441.175 259.148,446.675C273.473,452.174 284.262,468.084 284.781,471.541C285.3,474.998 283.949,484.115 283.949,489.194C283.949,494.273 297.347,509.844 297.521,523.092C297.694,536.34 288.511,549.414 264.675,558.01C259.113,568.283 249.397,578.934 225.434,578.566C201.47,578.197 198.312,573.631 194.514,571.034C190.716,568.438 190.194,560.411 183.929,556.515C177.665,552.619 166.486,542.494 163.475,532.664C160.464,522.834 154.707,512.177 168.805,488.479C169.2,472.493 173.457,455.442 183.145,448.442C192.833,441.441 200.928,435.12 211.672,436.275C222.416,437.43 222.73,448.758 231.297,448.835Z" style="fill:rgb(167,38,56);stroke:black;stroke-width:3.33px;"/>
        </g>
        <g transform="matrix(1.01135,0,0,0.995815,-0.295611,1.89706)">
            <path d="M160.366,471.838C162.072,472.283 169.085,472.062 172.548,472.561C174.324,472.817 175.992,473.995 177.326,475.363C178.471,476.538 179.369,477.831 179.892,478.655C183.679,476.851 199.33,469.288 210.443,462.291C215.721,458.968 219.983,455.828 221.27,453.492C225.782,445.305 229.95,440.506 229.95,440.506C229.912,440.549 229.879,440.595 229.849,440.643L231.319,438.268L231.677,441.629C231.677,441.629 231.656,442.029 231.839,442.475C232.274,443.534 233.485,445.12 236.445,447.365C239.921,450.001 241.343,451.769 241.864,453.572C242.377,455.344 241.995,457.207 241.628,460.15C241.605,460.331 241.685,460.543 241.794,460.795C241.969,461.196 242.246,461.648 242.604,462.145C243.801,463.806 245.859,465.899 248.367,468.186C257.369,476.395 272.112,486.984 274.88,488.956C276.024,488.522 277.356,486.149 280.423,485.441C283.186,484.803 287.632,485.79 289.792,486.247C294.882,487.326 300.862,488.564 300.862,488.564C301.231,488.64 303.349,488.19 303.463,488.549C303.576,488.908 301.668,490.022 301.41,490.297C301.41,490.297 299.056,492.807 294.577,496.772C290.676,500.225 284,502.029 282.051,502.5C280.493,506.352 270.429,531.475 268.369,542.856C268.107,544.307 267.974,545.519 268.026,546.412C268.043,546.694 268.076,546.936 268.139,547.133C268.154,547.18 268.186,547.246 268.203,547.28C273.309,549.272 276.327,551.903 277.109,558.12C277.858,564.081 276.393,570.014 276.393,570.014C276.298,570.401 275.991,570.699 275.602,570.783C275.213,570.867 274.811,570.722 274.564,570.41C274.564,570.41 272.313,567.697 264.291,565.893C260.701,565.086 257.401,562.678 254.751,560.049C251.664,556.986 249.463,553.649 248.697,552.421C244.461,552.205 216.754,550.892 205.14,552.896C203.667,553.15 202.467,553.452 201.639,553.83C201.381,553.948 201.166,554.069 201.005,554.205C200.953,554.248 200.888,554.327 200.869,554.351C200.87,557.533 198.625,560.113 195.797,561.612C192.989,563.102 189.658,563.476 187.621,562.531C184.233,560.959 183.26,560.939 177.209,562.541C176.812,562.646 176.39,562.509 176.132,562.19C175.874,561.871 175.827,561.43 176.013,561.064C177.561,558.006 176.879,556.43 176.693,554.942C176.527,553.617 176.613,552.335 178.047,550.555C180.536,547.466 186.304,543.057 188.219,541.63C186.521,536.889 176.877,510.195 170.826,498.346C169.861,496.457 168.995,494.955 168.269,494.006C168.063,493.736 167.874,493.517 167.697,493.357C167.627,493.294 167.579,493.232 167.522,493.216C165.969,492.776 164.929,492.142 164.215,491.377C163.356,490.457 162.948,489.333 162.776,488.013C162.629,486.886 162.657,485.601 162.643,484.182C162.625,482.361 161.804,480.494 160.953,478.675C159.993,476.622 158.985,474.625 158.695,472.823C158.615,472.327 158.9,471.845 159.373,471.676C159.718,471.553 160.092,471.623 160.366,471.838Z" style="fill:rgb(96,185,75);"/>
        </g>
        <g transform="matrix(1.01135,0,0,0.995815,-0.295611,1.89706)">
            <path d="M279.635,505.749C280.647,503.18 281.29,501.606 281.29,501.606C281.29,501.606 290.286,499.629 294.671,495.65C299.076,491.654 299.777,490.164 302.156,488.885C298.995,489.49 294.668,488.345 289.576,487.266C284.484,486.187 281.221,485.39 274.734,490.13C268.247,494.87 239.906,465.533 240.594,460.021C241.282,454.508 242.218,453.05 235.816,448.195C229.414,443.34 230.997,440.506 230.997,440.506C230.997,440.506 228.56,446.011 222.182,453.995C216.43,461.197 179.485,480 179.485,480C179.485,480 176.304,474.154 172.4,473.592C168.495,473.029 159.26,472.77 158.858,472.077C161.277,475.516 163.663,480.251 163.685,484.172C163.731,492.668 168.985,492.346 170.599,496.641C172.476,501.633 175.785,506.116 180.765,518.787C174.62,507.472 166.31,495.407 164.024,493.352C159.867,489.614 161.2,484.751 160.69,481.823C159.332,476.137 159.092,474.287 153.794,469.047C160.696,471.247 164.636,470.969 167.407,471.029C180.685,471.318 176.564,476.018 182.372,477.461C188.179,478.903 213.731,458.271 221.758,449.497C229.784,440.723 230.097,436.781 227.623,427.53C228.315,428.121 229.935,429.655 231.921,433.722C233.908,437.788 230.672,443.055 239.068,447.115C245.899,450.419 243.364,461.489 243.364,461.489L273.106,486.698C273.106,486.698 279.026,481.426 292.675,485.219C306.325,489.011 305.674,484.05 312.65,489.743C305.7,487.918 304.38,489.008 299.173,495.004C293.965,501.001 287.569,502.796 279.88,505.645C279.797,505.676 279.715,505.711 279.635,505.749ZM187.296,539.071C187.728,538.637 189.46,542.008 189.46,542.008C189.46,542.008 181.807,547.549 178.858,551.209C175.909,554.869 179.28,556.518 176.444,562.117C182.531,559.533 184.442,559.908 188.059,561.586C191.676,563.264 199.851,559.944 199.827,554.329C199.803,548.714 249.301,551.41 249.301,551.41C249.301,551.41 256.006,562.962 264.52,564.877C273.034,566.791 276.3,570.257 276.3,570.257C276.3,570.257 276.8,564.02 276.075,558.25C275.35,552.48 272.518,550.071 267.763,548.227C264.742,547.055 271.02,528.554 276,515.216C274.905,527.068 269.329,543.277 272.01,545.485C278.761,551.043 278.65,558.658 278.537,567.459C278.425,576.259 284.554,579.614 284.554,579.614C284.554,579.614 278.918,577.228 273.672,571.989C270.27,568.592 264.094,568.035 260.389,566.49C252.264,563.101 251.547,558.279 243.755,552.948C235.963,547.617 204.524,554.376 200.755,559.311C196.986,564.246 191.427,565.542 186.217,563.081C182.774,561.455 177.509,563.821 175.209,566.197C172.105,569.403 169.343,573.008 168.517,575.526C169.257,570.509 170.595,567.892 172.16,565.178C173.239,563.308 175.908,559.839 175.24,554.071C174.699,549.399 182.065,544.317 187.296,539.071Z"/>
        </g>
        <g transform="matrix(1.01135,0,0,0.995815,-0.295611,1.89706)">
            <path d="M199.483,457.887C207.391,453.1 203.851,445.567 212.943,446.258C222.035,446.948 225.4,468.873 220.315,492.431C191.431,493.25 178.161,488.637 178.82,471.672C179.478,454.708 191.574,462.673 199.483,457.887ZM258.524,453.004C266.524,456.407 262.003,463.559 268.836,469.367C276.002,475.458 282.215,480.177 275.782,491.038C266.582,506.568 226.211,487.692 226.211,487.692C236.727,457.403 250.523,449.602 258.524,453.004ZM278.474,524.752C274.683,534.177 280.813,544.069 272.349,547.431C256.835,553.591 252.558,523.987 238.507,516.449C227.012,510.283 234.205,501.261 243.184,503.572C252.163,505.883 257.361,506.439 265.949,501.208C274.536,495.977 283.122,497.022 286.295,501.995C295.646,516.648 282.265,515.327 278.474,524.752ZM222.69,558.611C216.324,558.416 214.332,561.863 209.799,562.833C205.267,563.802 200.43,562.508 197.976,554.978C195.521,547.447 216.394,529.271 220.541,524.993C224.687,520.715 249.524,518.26 243.032,522.693C235.48,527.851 246.478,536.309 252.709,540.464C261.861,546.567 257.767,556.252 255.375,559.223C252.983,562.193 244.125,568.356 238.808,567.907C233.492,567.457 229.056,558.807 222.69,558.611ZM178.796,517.657C177.994,510.639 170.302,507.403 170.33,499.54C170.358,491.677 174.838,490.237 184.615,493.345C194.392,496.454 213.546,509.104 213.546,509.104C213.546,509.104 226.708,506.754 214.365,521.904C202.022,537.054 187.359,550.92 177.078,540.456C169.855,533.104 179.598,524.676 178.796,517.657Z" style="fill:rgb(223,59,83);stroke:black;stroke-width:2.92px;"/>
        </g>
        <g transform="matrix(1.01135,0,0,0.995815,-0.295611,1.89706)">
            <path d="M214.518,527.747C215.838,527.757 213.97,531.676 217.69,531.71C221.41,531.745 221.662,528.656 223.494,529.091C225.325,529.525 227.126,532.857 229.359,531.585C231.592,530.314 232.095,526.607 234.151,527.897C236.208,529.187 239.888,529.064 240.695,527.15C241.502,525.235 241.819,525.484 243.759,525.277C245.699,525.069 247.627,523.205 246.385,520.824C245.143,518.443 246.446,518.022 247.645,516.748C248.845,515.473 249.301,512.832 247.43,511.568C245.56,510.304 249.563,509.483 250.111,507.357C250.658,505.23 249.115,505.366 248.345,504.747C247.574,504.128 247.972,502.993 249.005,501.543C250.037,500.094 250.697,499.549 249.792,497.886C248.888,496.223 248.125,494.952 246.196,494.845C244.267,494.737 245.185,492.915 244.376,491.267C243.566,489.62 241.845,492.675 240.058,491.597C238.271,490.519 238.917,488.877 237.504,487.134C236.09,485.391 234.986,489.533 233.222,488.192C231.457,486.85 230.624,485.208 228.623,485.191C226.623,485.174 225.105,485.333 223.454,483.246C221.803,481.159 219.792,480.31 218.112,481.392C216.432,482.473 215.898,485.318 215.685,486.208C215.472,487.099 215.121,485.807 213.334,485.853C211.548,485.899 208.586,486.494 208.277,488.362C207.968,490.23 210.403,493.149 207.691,492.381C204.979,491.612 203.183,492.182 202.453,493.775C201.722,495.368 203.056,497.451 204.256,498.665C205.456,499.878 207.063,501.845 205.572,501.626C204.081,501.407 202.104,500.464 201.295,501.539C200.486,502.615 200.72,504.136 201.882,505.656C203.043,507.176 205.842,508.792 203.949,509.388C202.057,509.983 199.345,513.082 200.807,514.04C202.269,514.998 202.887,516.428 204.678,516.483C206.468,516.538 204.318,517.337 204.367,518.732C204.417,520.127 204.423,522.159 207.188,522.125C209.953,522.09 209.307,523.366 209.307,525C209.307,526.634 209.453,529.009 211.375,529C213.296,528.99 213.199,527.738 214.518,527.747Z"/>
        </g>
        <g transform="matrix(1.01135,0,0,0.995815,-0.295611,1.89706)">
            <path d="M235.423,514.611C233.805,515.773 229.183,519.532 231.461,521.94C233.74,524.348 234.047,520.74 234.611,519.727C235.175,518.714 236.69,519.459 237.225,521.112C237.759,522.766 238.086,527.716 235.642,525.816C233.199,523.917 231.683,525.22 230.951,525.869C230.219,526.518 227.358,530.778 227.619,528.418C227.879,526.058 228.707,525.293 227.959,523.857C227.21,522.422 225.715,520.47 223.679,520.809C221.642,521.149 219.383,522.842 219.829,524.272C220.275,525.701 221.054,524.86 221.597,523.817C222.139,522.774 223.253,522.713 223.235,523.999C223.217,525.285 220.931,526.332 219.768,527.6C218.606,528.869 219.19,528.806 217.106,526.612C215.021,524.418 214.749,523.012 213.61,524.18C212.471,525.348 210.397,526.542 211.132,524.77C211.866,522.997 212.804,521.639 214.576,521.98C216.347,522.321 217.278,526.353 217.96,524.784C218.642,523.215 216.772,521.506 218.432,520.26C220.092,519.014 221.108,517.225 222.34,517.589C223.572,517.952 224.858,520.237 224.844,518.819C224.83,517.402 224.584,515.775 223.306,514.843C222.029,513.91 221.569,511.62 220.056,513.096C218.543,514.573 217.624,517.01 215.961,518.208C214.298,519.406 211.182,519.637 210.996,518.65C210.811,517.664 212.626,518.63 213.986,517.575C215.345,516.519 216.707,514.413 216.455,513.031C216.203,511.649 215.686,509.581 214.326,509.503C212.967,509.425 211.407,509.422 210.379,510.192C209.35,510.963 206.873,512.37 208.133,512.726C209.392,513.082 211.556,511.911 212.351,512.487C213.147,513.062 211.897,514.548 210.251,514.466C208.606,514.385 205.094,513.49 205.203,512.43C205.311,511.369 209.04,510.752 208.041,509.379C207.042,508.006 202.319,502.888 203.985,503.572C205.65,504.256 209.102,509.021 209.997,508.551C210.893,508.081 214.127,506.176 215.361,507.357C216.596,508.537 216.955,513.565 218.575,510.813C220.196,508.061 220.435,507.808 218.161,505.656C215.887,503.504 216.173,503.378 213.517,503.572C210.862,503.766 209.224,502.677 208.933,500.214C208.642,497.751 206.678,497.884 207.664,497.126C208.65,496.367 209.671,496.85 210.378,497.307C211.086,497.765 210.083,498.168 210.662,499.693C211.242,501.218 211.472,502.242 213.154,501.272C214.837,500.302 217.363,498.442 216.326,496.718C215.289,494.994 213.587,493.141 212.192,491.713C210.797,490.285 210.694,488.039 212.623,489.064C214.553,490.088 215.483,492.886 216.43,493.49C217.377,494.095 218.542,494.912 219.838,493.745C221.133,492.578 221.288,493.065 220.457,493.905C219.626,494.746 218.099,495.045 218.099,496.06C218.099,497.075 217.747,499.026 219.297,497.611C220.847,496.196 223.132,496.354 223.047,497.742C222.962,499.13 221.664,499.801 219.961,499.621C218.259,499.441 217.296,499.025 216.933,500.105C216.569,501.185 215.837,502.104 217.577,502.059C219.317,502.014 220.152,503.409 221.607,503.572C223.062,503.735 223.158,503.449 224.202,502.585C225.245,501.722 227.603,499.938 227.451,497.903C227.3,495.868 227.376,495.278 226.101,494.131C224.825,492.984 223.51,493.083 222.253,493.649C220.997,494.215 221.184,492.1 223.589,491.469C225.995,490.839 225.115,489.897 222.568,489.846C220.021,489.796 220.688,489.295 219.498,487.392C218.309,485.489 218.419,485.013 219.374,484.402C220.33,483.792 221.807,484.764 222.226,485.983C222.646,487.203 223.739,487.953 225.308,487.817C226.878,487.682 229.581,487.422 228.623,489.332C227.666,491.243 226.737,491.846 228.623,494.178C230.509,496.511 233.346,496.852 233.889,495.8C234.432,494.748 231.373,496.12 231.288,494.061C231.203,492.002 231.517,491.903 233.222,491.107C234.926,490.311 236.318,489.024 236.563,490.774C236.808,492.524 237.29,493.57 238.18,494.427C239.071,495.285 240.341,496.888 237.744,497.345C235.146,497.801 232.68,496.762 231.121,497.685C229.562,498.609 226.87,500.082 226.899,501.367C226.929,502.652 227.383,504.655 227.985,502.975C228.587,501.295 227.758,501.296 230.187,500.753C232.616,500.21 232.902,499.206 233.222,500.651C233.542,502.096 233.725,506.118 231.837,505.656C229.949,505.194 230.387,504.916 231.212,503.572C232.037,502.228 232.085,500.913 230.187,502.427C228.288,503.94 227.965,504.247 228.623,505.656C229.282,507.066 230.382,507.651 229.243,508.475C228.104,509.299 225.194,510.781 227.258,510.901C229.322,511.022 229.818,510.861 230.187,512.098C230.556,513.336 229.249,513.547 228.082,514.462C226.915,515.377 226.366,516.048 226.459,517.687C226.551,519.327 225.046,519.413 227.356,521.037C229.665,522.662 231.367,525.019 230.662,522.842C229.956,520.665 229.413,520.844 230.187,518.933C230.961,517.022 233.788,515.352 233.787,514.372C233.785,513.392 234.608,513.425 233.751,511.722C232.894,510.02 230.988,508.881 232.098,507.893C233.207,506.905 234.356,505.948 234.53,504.67C234.704,503.392 235.665,502.205 234.916,501.135C234.167,500.065 235.144,500.814 236.41,500.696C237.676,500.577 239.93,500.134 240.508,499.381C241.086,498.628 242.498,496.25 243.286,497.619C244.074,498.989 246.146,500.364 244.402,500.545C242.659,500.727 241.342,500.951 241.29,501.786C241.237,502.621 242.543,503.578 243.205,503.572C243.867,503.566 244.408,506.384 242.772,504.66C241.136,502.935 239.511,503.731 238.487,503.572C237.462,503.412 235.565,506.481 235.16,507.357C234.754,508.232 233.62,507.699 233.999,508.449C234.378,509.199 234.87,510.117 235.134,511.012C235.398,511.906 237.057,513.164 238.468,511.913C239.879,510.662 241.289,510.528 240.263,509.919C239.237,509.309 239.56,510.073 238.207,510.112C236.853,510.151 236.302,508.52 237.078,507.357C237.854,506.193 238.945,506.386 239.793,507.357C240.641,508.327 239.649,508.6 240.91,509.723C242.171,510.845 242.96,513.358 244.021,513.265C245.083,513.172 244.925,514.944 244.058,515.716C243.192,516.487 240.827,513.458 241.422,515.018C242.016,516.578 242.949,517.753 243.341,519.144C243.732,520.534 244.208,522.579 243.151,521.12C242.095,519.661 240.737,516.789 239.476,515.963C238.214,515.136 237.041,513.449 235.423,514.611Z" style="fill:rgb(240,230,11);"/>
        </g>
    </g>
</svg>
