<svg clip-rule="evenodd" fill-rule="evenodd" stroke-linejoin="round" stroke-miterlimit="2" viewBox="0 0 335 269" xmlns="http://www.w3.org/2000/svg" xmlns:xlink="http://www.w3.org/1999/xlink"><clipPath id="a"><path clip-rule="evenodd" d="m43.229 214.457-2.022-4.043c-6.471-13.758-9.726-29.317-9.207-45.414 1-13 4-22 10-35 16-33 45-53 82-58 18-2 40-1 56 3 22 6 45 24 57 45 8 15 14 38 13 52l-1 7h2c2 1 10 1 14 0l3-2v-15c0-9 1-22 2-29 1-10 1-20 1-32 0-16-1-17-2-18-4-3-9-7-11-10-1-2-1-6-1-9 0-15 15-25 29-18 8 4 12 14 10 23-1 5-7 11-11 13-3 1-4 4-4 16 0 11 2 22 3 24 1 1 2 1 7-1 7-2 13-1 18 1l4 2 2-4c1-4 3-24 2-31-1-4-2-6-6-10-9-9-10-17-4-26 10-17 36-9 36 11 0 8-4 14-12 18-.29.29-.664.664-1.073 1.049-.577.385-1.04.704-1.411 1.21-.579.434-1.124.741-1.516.741-1 3-2 42-1 57 .092.74.176 1.514.253 2.315.03 5.173.258 8.498.683 10.414.273 5.416.522 10.932 1.064 15.271v1c0 6 0 20 1 30 0 21-1 33-4 47-.229.917-.475 1.832-.738 2.744-1.425 4.695-3.173 9.078-5.262 13.256-6 13-16 25-25 30-6 3-20 7-30 8-6 1-23 2-39 3s-34 2-40 2c-24 2-30 2-35 0-11-4-13-4-39 0-13 1-14 1-28-3-6-1-8-1-18 0-16 2-26 2-36-1-5-2-10-3-12-3h-4v-2c0-6 6-10 29-19 7-3 13-5 13-6l-2-2c-7-6 1-17 16-20l5-1v-1s-3-3-7-6c-9.871-7.725-17.9-17.477-23.771-28.543z"/></clipPath><g transform="matrix(1.01223 0 0 1.01494 -13.159 -44.3731)"><path d="m13 43.72h330v264.78h-330z" fill="none"/><g transform="matrix(.987917 0 0 .985283 2.15083 3.30131)"><path d="m43.229 214.457-2.022-4.043c-6.471-13.758-9.726-29.317-9.207-45.414 1-13 4-22 10-35 16-33 45-53 82-58 18-2 40-1 56 3 22 6 45 24 57 45 8 15 14 38 13 52l-1 7h2c2 1 10 1 14 0l3-2v-15c0-9 1-22 2-29 1-10 1-20 1-32 0-16-1-17-2-18-4-3-9-7-11-10-1-2-1-6-1-9 0-15 15-25 29-18 8 4 12 14 10 23-1 5-7 11-11 13-3 1-4 4-4 16 0 11 2 22 3 24 1 1 2 1 7-1 7-2 13-1 18 1l4 2 2-4c1-4 3-24 2-31-1-4-2-6-6-10-9-9-10-17-4-26 10-17 36-9 36 11 0 8-4 14-12 18-.29.29-.664.664-1.073 1.049-.577.385-1.04.704-1.411 1.21-.579.434-1.124.741-1.516.741-1 3-2 42-1 57 .092.74.176 1.514.253 2.315.03 5.173.258 8.498.683 10.414.273 5.416.522 10.932 1.064 15.271v1c0 6 0 20 1 30 0 21-1 33-4 47-.229.917-.475 1.832-.738 2.744-1.425 4.695-3.173 9.078-5.262 13.256-6 13-16 25-25 30-6 3-20 7-30 8-6 1-23 2-39 3s-34 2-40 2c-24 2-30 2-35 0-11-4-13-4-39 0-13 1-14 1-28-3-6-1-8-1-18 0-16 2-26 2-36-1-5-2-10-3-12-3h-4v-2c0-6 6-10 29-19 7-3 13-5 13-6l-2-2c-7-6 1-17 16-20l5-1v-1s-3-3-7-6c-9.871-7.725-17.9-17.477-23.771-28.543z" fill="#f7f7f7"/><g clip-path="url(#a)" fill-rule="nonzero"><path d="m0 0h354v328h-354z" fill="#0f0b08"/><path d="m1 327v-326h353v326zm22-29c-2-1-3-2-5-1l-2 1v-1c0-4 6-7 25-15l13-5h-4v-1l1-1-11 5c-21 8-27 12-27 18v2h13zm285-17h1l3-4c7-10 13-24 11-28l-1-3v4c-2 10-10 24-19 34l-4 5 4-5 5-4zm-171-2c24-2 44-7 60-14 9-3 24-12 31-17 6-6 19-19 24-27 10-13 18-31 18-40v-5l-3 2c-3 1-6 1-12 1h-9l-1 6c-5 24-26 49-51 62-8 4-21 9-22 8v-1l4-2c6-4 18-17 22-24 2-4 4-9 5-11 1-3 2-6 2-7 1-1 3-26 2-27-1 0-1-2-1-5 0-5-2-12-6-21-2-3-3-6-3-7v-1h-3v-2c-1-1-4-5-9-9-5-5-7-7-7-9v-2l-3 3-7-3c-14-7-34-9-46-5-3 1-7 1-9 1l-4 1v1l1 1-4 3c-4 2-16 14-16 16 0 0-2 4-4 9s-4 9-4 10l1 1-1 1c-1 1-1 4-1 13 0 15 0 17 2 19 2 1 6 10 6 13v2h1c1 0 4 3 8 6 3 3 8 7 11 8l6 2v2l-1 2 2-1c1-1 5-1 12-2 9 0 13 0 17-2 8-3 17-10 17-12 0-1 1-3 3-5s3-4 2-5v-1h2l1-5 1-6h4l-2-1c-2-1-5-11-4-13v-1h-1c-2 0-10-9-10-11v-2l-1 1c-2 1-3 1-5 0s-5-1-7-1h-3l-2-6-1 1h-1v3l1 2h-2c-1 0-4 1-8 3-6 3-7 5-9 13-1 2 0 4 1 7 3 4 7 8 10 8h2v-3h-3c-6-2-9-11-5-17 3-6 15-9 24-7 11 3 18 12 18 24 0 7-4 18-7 18h-1v2c0 2-2 4-11 9-3 2-3 2-6 1l-3-2 1 2 1 1-1 1c-1 1-5 1-11 1-11 0-18-2-27-9-6-4-14-14-14-17 0-1-1-3-2-5s-2-7-3-10c0-4 0-5 2-7l1-2h-3v-2c0-4 3-15 7-22 4-8 11-17 19-22l7-4v3h1s1-1 2-2c1-2 4-3 7-4 7-1 14-1 16 0l1 2 1-2v-1l7 2c3 0 9 2 13 3 6 2 17 9 20 13 8 8 13 15 13 19v2h2l2 8c2 4 3 12 4 16v8h-2l1 4c0 2 0 6-1 10-2 5-3 7-5 8l-2 1 1 1 2 1-4 7c-3 7-12 18-19 22-2 2-4 3-4 3h-1v-1c0-1-1-2-2-4l-1-1v4l1 4-3 1c-4 3-16 6-19 6-2 0-3-1-4-1-1-1-2-2-2-2h-1v2l1 2h-6c-14 1-40-2-41-5v-1h-2c-3 0-22-12-23-14 0-1-1-1-1-1-3 0-18-18-22-26-2-5-5-9-5-9l-1-1v-3l1-2-1-1c-3-2-7-32-4-34h1l-2-2 2-8c2-13 9-29 19-41l4-6 1 1h1v-1c0-3 20-20 24-20h2v-2l8-3c11-4 25-7 40-8h12l-1 2-1 3 3-3c2-2 4-3 7-3 2 0 4 0 4 1 1 0 4 1 8 1 4 1 7 2 9 4l3 2v-3l2 1c5 1 17 7 23 11 8 6 20 17 25 26l5 6v-1l2 2 2 1-3-5c-14-25-46-46-70-46h-6v-2h-14c-37 0-62 9-83 29-12 12-23 31-28 47-4 15-4 34 1 51l2 7h2v1c-1 2 7 16 13 23 5 7 19 19 21 19h1v2l-1 1h1c1 0 5 2 9 4 10 5 18 8 31 9 16 2 36 0 47-4 2-1 4-2 5-2 8 0 28-7 38-14 22-15 37-35 43-58l1-4 5 1c3 0 7 0 9-1s4-1 5-1c1 1-2 11-7 20-16 34-49 60-88 70-32 8-89 8-115 0h-2v4h4c2 1 9 1 15 2s14 2 16 2c10 1 34 1 46 0zm189-123v-24l-1 4v4h-1c-1 0-3-2-4-5-4-8-5-11-7-11-1 0-2-1-3-1l-2-2-1 1h-1l5 5c4 4 6 7 9 14 1 4 3 9 4 11v4zm-41-79c4-2 6-6 6-10v-3h3l2 1v-3l-6-1c-3 0-9-1-13-1h-7v1c0 1 2 3 4 5l4 3-3 2c-2 1-4 3-4 3 0 1 1 2 3 3 3 2 7 3 11 0zm49-2c3-2 3-4 3-7v-4l3 1h3v-3l-7-1c-3-1-9-1-12-1l-6 1-1 2c0 2 2 4 4 5l2 1-6 4 1 2c1 2 5 4 9 4 3-1 5-2 7-4zm-319 219c2-3 9-7 23-13l11-4h1v1l-10 3c-13 6-19 9-23 12l-3 4zm293-14c0-1 2-3 4-6s5-9 7-13l3-7v1c0 2-9 19-11 23l-3 3zm14-27v-3l1 1v2zm-46-178-1-1h1c2 0 5-4 5-6 0 0-2-2-3-3-2-1-4-2-4-2v-1l6 1c4 0 7 0 7 1 2 1 1 6-2 9s-8 4-9 2zm47 0h-2v-1s1-1 2-2c1 0 3-2 3-3v-2l-2-1c-2-1-3-2-3-2v-1h3c1-1 4-1 6 0h4v3c1 3-1 8-4 9-2 1-5 1-7 0z" fill="#272119"/><path d="m1 327v-326h353v326zm184-20c6 0 24-1 40-2s33-2 39-3c10-1 24-5 30-8 13-7 26-26 31-46 3-14 4-26 4-47-1-10-1-24-1-30s0-14-1-16c-2-8-2-63 0-69l2-4h-2c-2 0-5 0-7-1h-5v1c0 1 3 2 5 2l5 1-1 1c0 1-1 13-1 28v26l-3-6c-5-10-5-10-7-10 0 0-2-1-4-2-5-2-11-3-18-1-5 2-6 2-7 1-3-3-4-36-1-39l1-1-7-1h-8l1 2c0 2 1 4 2 5l2 3-1-3c-1-2-1-3-1-4h7v15c0 12 0 17 1 20l2 5-2 1-1 1v1c1 0 3-1 6-1 7-3 19-4 23-2 6 4 11 12 15 27 2 7 2 14 2 60 0 21 0 23-2 34-6 24-19 42-35 48s-27 8-63 9c-15 1-35 2-44 3-22 2-25 1-32-1-8-4-17-4-33-1s-18 3-30-1c-9-2-10-2-19-1-16 2-28 1-37-1-4-1-8-3-8-3h-4l-2 1v-1c0-4 6-7 28-16 15-6 15-6 20-5 17 3 48 5 70 3 36-3 59-9 80-23 12-7 15-10 25-20 14-14 24-29 29-44 2-6 2-9 3-28 0-12 0-25 1-29 1-3 1-9 1-11v-4l-1 2c0 1-1 2-1 2-1 1-3 23-3 38v15l-3 2c-4 1-12 1-14 0h-2l1-7c1-14-5-37-13-52-12-21-35-39-57-45-16-4-38-5-56-3-37 5-66 25-82 58-6 13-9 22-10 35-1 31 12 60 35 78 4 3 7 6 7 6v1l-5 1c-15 3-23 14-16 20l2 2c0 1-6 3-13 6-23 9-29 13-29 19v2h4c2 0 7 1 12 3 10 3 20 3 36 1 10-1 12-1 18 0 14 4 15 4 28 3 26-4 28-4 39 0 5 2 11 2 35 0zm124-121c1-1 3-2 4-3l1-2v-1h-1l-3 2c-4 4-9 5-14 3-2-1-4-1-4-1h-1l2 2c3 3 12 3 16 0zm3-24 3-2v-1l-5 1c-7 0-18-4-21-10l-1-2 3-3v-1h-1l-3 1c-2 1-3 2-4 3l-1 1h1c1 0 4 2 7 5 4 4 7 6 11 7 7 2 6 2 11 1zm-27-85c4-2 6-6 6-10v-3h3l2 1v-3l-6-1c-7-1-16-1-24 0-3 1-6 1-7 1v-1l2-4c1-5 6-9 10-10h3v-2h-3c-6 0-13 8-14 16l-1 4h1c0 1 3 0 6-1 5-1 5-1 10 2l5 3-3 2c-2 1-4 3-4 3 0 1 1 2 3 3 3 2 7 3 11 0zm49-2c3-2 3-4 3-7v-4l3 1h3v-3l-7-1c-6-1-20-1-27 1h-3v-4h-1l-1 2c-1 2-1 5-1 7l1 3 1-1c1 0 1-1 1-2v-2h3c2-1 4-1 5-2h2v3l6 2v1s-1 1-2 2l-3 2 1 2c2 5 11 5 16 0zm-242 202c0-1-6-1-13-2-13-1-20-3-24-6l-3-2 2-3c2-4 8-8 16-11 7-2 7-2 14 2 10 5 18 8 31 9 16 2 36 0 47-4 2-1 4-2 5-2 8 0 28-7 38-14 22-15 37-35 43-58l1-4 5 1c3 0 7 0 9-1s4-1 5-1c1 1-2 11-7 20-11 24-31 44-56 57-23 13-48 18-89 19zm26-16c-9-1-21-3-23-4v-1l2-3c3-2 4-7 4-11l-1-2-1 5c-1 3-3 7-5 8l-2 2-5-2c-5-2-17-11-18-12 0-1-1-1-1-1-1 0-5-4-10-9-7-8-17-24-17-28v-2l3 1c5 1 10-1 14-5 10-9 11-22 2-32-5-6-14-8-21-4l-4 2 1-3c2-17 9-33 19-46l5-7 1 1h1v-1c0-3 20-20 24-20h2v-2l8-3c11-4 25-7 40-8h12l-1 2-1 3 2-3c3-2 5-2 17-1 7 1 10 2 12 4l3 2v-3l2 1c5 1 17 7 23 11 8 5 19 17 25 25 2 3 4 6 4 6v1l-5 1c-2 1-4 2-5 2v1h1c0 1 3 0 5-1 2 0 5-1 5 0 2 0 6 10 9 20s4 30 1 40c-6 30-33 57-65 68-4 1-7 2-8 2v-1l4-2c10-6 23-23 28-36l1-5 2 1c1 0 3 0 5 1 11 1 19-15 13-25-3-5-7-6-13-6l-5 1v-5c-1-6-4-13-7-21-2-3-3-6-3-7v-1h-3v-2c-1-1-4-5-9-9-5-5-7-7-7-9v-2l-3 3-7-3c-14-7-34-9-46-5-3 1-7 1-9 1l-4 1v1l1 1-4 3c-3 2-7 6-10 9l-5 5-1-1c0-3-5-5-9-5-6 0-13 7-14 14 0 6 6 14 12 13h3l-1 3c-1 3-1 21 0 26l1 3-2-1c-2 0-8 2-10 5-3 2-3 4-4 8v5h1c0-1 1-2 1-3 0-6 6-12 12-12 3 0 3 1 5 5 1 2 2 4 3 4h1v6h1c1 0 4 3 8 6 3 3 8 7 11 8l6 2v1c0 1 0 1-1 1-2 2-2 8-1 11 4 9 17 7 20-2 1-3 1-5 0-6l-1-3 6-1c7-1 15-5 19-9l4-3 1 3c3 3 6 4 10 3 4-2 7-7 5-11-1-3-4-6-7-6h-2v-2c1-1 2-4 2-6l1-5h4l-2-1c-2-1-5-11-4-13v-1h-1c-2 0-10-9-10-11v-2l-1 1c-2 1-3 1-5 0s-5-1-7-1h-3l-2-6-1 1h-1v3l1 2h-2c-1 0-4 1-8 3-6 3-7 5-9 13-1 2 0 4 1 7 3 4 7 8 10 8h2v-3h-3c-6-2-9-11-5-17 3-6 15-9 24-7 11 3 18 12 18 24 0 7-4 18-7 18h-1v2c0 2-2 4-11 9-3 2-3 2-6 1l-3-2 1 2 1 1-1 1c-1 1-5 1-11 1-11 0-18-2-27-9-6-4-14-14-14-17 0-1-1-3-2-5s-2-7-3-10c0-4 0-5 2-7l1-2h-3v-2c0-4 3-15 7-22 4-8 11-17 19-22l7-4v3h1s1-1 2-2c1-2 4-3 7-4 7-1 14-1 16 0l1 2 1-2v-1l7 2c3 0 9 2 13 3 6 2 17 9 20 13 8 8 13 15 13 19v2h2l2 8c2 4 3 12 4 16v8h-2l1 4c0 2 0 6-1 10-2 5-3 7-5 8l-2 1 1 1 2 1-4 7c-3 7-12 18-19 22-2 2-4 3-4 3h-1v-1c0-1-1-2-2-4l-1-1v4l1 4-3 1c-4 3-16 6-19 6-2 0-3-1-4-1-1-1-2-2-2-2h-1l1 2v2h-11c-1 1-6 0-12 0zm0-17c-3-2-4-8-1-12 1-2 2-2 6-1 6 0 8 2 8 6 0 7-8 11-13 7zm47-24c-3-2-2-5 0-8l3-3 3 1c3 1 4 3 4 6 0 5-7 8-10 4zm43-11c-2-1-2-2-1-7 1-4 1-9 1-12v-5h3c4-1 10 1 11 3 2 3 2 12 1 16-1 2-3 4-4 4-3 2-9 2-11 1zm-166-10c-2-1-3-2-4-5-2-7-3-15-3-21 0-7 2-9 8-11 8-2 14 1 18 9 4 7 4 12 0 19s-13 11-19 9zm35-38c-8-2-9-14-2-19 4-3 10-2 13 0l2 3-4 8-4 9h-1c-1 0-3-1-4-1zm199-86-1-1h1c2 0 5-4 5-6 0 0-2-2-3-3-2-1-4-2-4-2v-1l6 1c4 0 7 0 7 1 2 1 1 6-2 9s-8 4-9 2zm47 0h-2v-1s1-1 2-2c1 0 3-2 3-3v-2l-2-1c-2-1-3-2-3-2v-1h3c1-1 4-1 6 0h4v3c1 3-1 8-4 9-2 1-5 1-7 0z" fill="#3e2f23"/><path d="m1 327v-326h353v326zm184-20c6 0 24-1 40-2s33-2 39-3c10-1 24-5 30-8 9-5 19-17 25-30 8-16 11-35 10-63-1-10-1-24-1-31-1-8-1-20-2-28-1-15 0-54 1-57 1 0 3-2 4-3 8-4 12-10 12-18 0-20-26-28-36-11-6 9-5 17 4 26 4 4 5 6 6 10 1 7-1 27-2 31l-2 4s-2-1-4-2c-5-2-11-3-18-1-5 2-6 2-7 1-1-2-3-13-3-24 0-12 1-15 4-16 4-2 10-8 11-13 2-9-2-19-10-23-14-7-29 3-29 18 0 3 0 7 1 9 2 3 7 7 11 10 1 1 2 2 2 18 0 12 0 22-1 32-1 7-2 20-2 29v15l-3 2c-4 1-12 1-14 0h-2l1-7c1-14-5-37-13-52-12-21-35-39-57-45-16-4-38-5-56-3-37 5-66 25-82 58-6 13-9 22-10 35-1 31 12 60 35 78 4 3 7 6 7 6v1l-5 1c-15 3-23 14-16 20l2 2c0 1-6 3-13 6-23 9-29 13-29 19v2h4c2 0 7 1 12 3 10 3 20 3 36 1 10-1 12-1 18 0 14 4 15 4 28 3 26-4 28-4 39 0 5 2 11 2 35 0zm-37-4c-7-3-16-3-32 0s-18 3-30-1c-9-2-10-2-19-1-16 2-28 1-37-1-4-1-8-3-8-3h-4l-2 1v-1c0-4 6-7 28-16 15-6 15-6 20-5 17 3 48 5 70 3 36-3 59-9 80-23 12-7 15-10 25-20 14-14 24-29 29-44 2-6 2-9 3-27 0-12 0-26 1-31 2-11 2-44 1-48l-1-2h7v15c0 12 0 17 1 20l2 5-2 1-1 1v1c1 0 3-1 6-1 7-3 19-4 23-2 6 4 11 12 15 27 2 7 2 14 2 60 0 21 0 23-2 34-6 24-19 42-35 48s-27 8-63 9c-15 1-35 2-44 3-21 1-26 1-33-2zm-104-8c-3-2-20-2-21 0l-1 1h24zm265-109c1-1 3-2 4-3l1-2v-1h-1l-3 2c-4 4-9 5-14 3-2-1-4-1-4-1h-1l2 2c3 3 12 3 16 0zm3-24 3-2v-1l-5 1c-7 0-18-4-21-10l-1-2 3-3v-1h-1l-3 1c-2 1-3 2-4 3l-1 1h1c1 0 4 2 7 5 4 4 7 6 11 7 7 2 6 2 11 1zm-220 115c0-1-6-1-13-2-13-1-20-3-24-6l-3-2 2-3c2-4 8-8 16-11 7-2 7-2 14 2 10 5 18 8 31 9 16 2 36 0 47-4 2-1 4-2 5-2 8 0 28-7 38-14 22-15 37-35 43-58l1-4 5 1c3 0 7 0 9-1s4-1 5-1c1 1-2 11-7 20-11 24-31 44-56 57-23 13-48 18-89 19zm26-16c-9-1-21-3-23-4v-1l2-3c5-5 5-14-1-19-3-4-10-6-15-6-5 1-11 5-12 9v2h-1c-1 0-5-4-10-8-5-6-9-11-12-18-3-5-5-9-5-10v-2l3 1c5 1 10-1 14-5 10-9 11-22 2-32-5-6-14-8-21-4l-4 2 1-3c2-17 9-33 19-46l5-7 1 3c1 8 8 13 18 14 13 1 24-12 20-25-1-3-3-6-6-9l-5-5 8-3c11-4 25-7 40-8h12l-3 4c-4 6-5 16-3 22 3 8 12 14 20 14 4 0 11-3 14-5 6-6 9-18 6-26-1-2-2-5-2-5 1 0 8 3 14 6 14 6 27 18 36 31l4 6c0 1-3 1-6 2-16 6-20 29-6 39 4 2 5 2 10 2s8 0 11-2l4-2v11c-1 13-3 21-8 31-11 23-34 43-59 51-4 1-7 2-8 2v-1l4-2c10-6 23-23 28-36l1-5 2 1c1 0 3 0 5 1 11 1 19-15 13-25-3-5-7-6-13-6l-5 1v-5c-1-6-4-13-8-22l-2-5 1-1c2-1 7-5 9-8 4-9-1-21-10-23-7-2-17 2-20 8-1 1-2 3-2 3l-6-3c-7-3-15-6-24-7h-6v-3c0-4-2-9-5-13-6-5-20-3-25 4-3 4-3 12-1 15l2 3-4 3c-3 2-7 6-10 9l-5 5-1-1c0-3-5-5-9-5-6 0-13 7-14 14 0 6 6 14 12 13h3l-1 3c-1 3-1 21 0 26l1 3-2-1c-2 0-8 2-11 5-2 2-2 4-3 8 0 5 0 6 3 9s5 4 8 5c5 0 11-2 12-6 1-1 2-3 2-3l6 6c4 3 9 7 12 8l6 2v1c0 1 0 1-1 1-2 2-2 8-1 11 4 9 17 7 20-2 1-3 1-5 0-6l-1-3 6-1c7-1 15-5 19-9l4-3 1 3c3 3 6 4 10 3 4-2 7-7 5-11-1-3-4-6-7-6h-2v-2c1-1 2-4 2-6l1-5h2c0 1 2 0 4-2s3-3 3-6c0-4-5-9-8-9h-3v2h-1s-3-2-5-4c-4-5-5-5-5-10s0-6-2-8c-7-7-20-2-18 7l1 2h-2c-1 0-4 1-7 3l-6 3-1-2c-1-1-5-1-9 2-5 3-3 12 3 14 2 0 3 1 5 4 1 4 6 7 9 7h2v-3h-3c-6-2-9-11-5-17 3-6 15-9 24-7 2 0 6 2 8 4 10 6 13 20 7 32-1 3-2 6-3 6 0 0-2-2-3-3-4-4-9-5-14-2-7 3-9 11-5 16l2 3-2 1h-10c-11 0-18-2-27-9-6-4-14-14-14-17v-1l3 1c4 0 11-3 14-7 2-4 1-11-2-15-3-5-13-6-18-3l-1 1h-1c-1-2 3-16 7-24 2-6 5-9 10-14 4-4 10-9 12-10l4-2v5c0 9 5 14 13 14 10 0 17-8 16-18l-1-5 7 2c9 1 17 4 24 9 6 3 10 7 10 8v1h-4c-5 1-10 6-11 12-1 8 2 13 11 15 5 1 11 0 15-5l3-3 2 8c2 4 3 12 4 16v8l-3-2c-11-6-22 3-20 17 1 6 6 9 12 10h5l-4 7c-3 8-12 17-19 22l-4 3c-1 0-1-3-2-5-3-8-10-12-18-10-12 4-17 13-12 21l1 3v1zm10-49c6-5 3-15-4-15-4 0-9 5-9 9 0 7 8 11 13 6zm27-18c2-2 2-3 2-6-1-6-3-7-8-7s-9 3-9 9c0 8 9 11 15 4zm-12 63c-2-3-3-8-1-11l5-5c3-2 4-2 9-2 4 0 5 0 8 2 1 2 3 5 4 7l1 4-2 2c-2 2-16 6-20 6-2 0-3-1-4-3zm-58-5c-7-4-15-10-15-11s1-3 2-4c7-9 21-8 25 2 2 4 2 5 1 8-1 4-5 8-6 8s-4-1-7-3zm33-8c-3-2-4-8-1-12 1-2 2-2 6-1 6 0 8 2 8 6 0 7-8 11-13 7zm24-21c-3-3-3-6-2-10 4-6 13-7 17-3 2 4 1 7-5 11-3 2-7 4-7 4-1 0-2-1-3-2zm23-3c-3-2-2-5 0-8l3-3 3 1c3 1 4 3 4 6 0 5-7 8-10 4zm-93-2c-8-6-3-20 8-20 2 0 3 1 5 5 4 7 4 11 0 14-3 2-10 3-13 1zm118-2c-4-2-6-7-6-12 0-7 8-13 14-11s7 6 4 16c-1 6-2 6-7 8-1 0-3-1-5-1zm18-7c-2-1-2-2-1-7 1-4 1-9 1-12v-5h3c4-1 10 1 11 3 2 3 2 12 1 16-1 2-3 4-4 4-3 2-9 2-11 1zm-166-10c-2-1-3-2-4-5-2-7-3-15-3-21 0-7 2-9 8-11 8-2 14 1 18 9 4 7 4 12 0 19s-13 11-19 9zm45-2c-2-2-4-10-4-15 0-3 4-5 10-5 3 0 5 1 7 3 3 2 3 4 3 8s0 5-2 7c-4 3-12 4-14 2zm83-10c-1-3-2-6-1-6 0-1 1-1 3-1h3l1 3c1 2 2 4 1 5 0 2-3 4-5 4h-1zm-54-4c-3-1-3-7 0-9 2-2 6-3 7-1v1l-1 1c0 1-1 3-2 5-1 4-2 4-4 3zm37-16c-1 0-3 0-6-1h-5l-1-3c0-4 2-7 7-7 2 0 4 0 5 1 2 1 4 7 3 10v1h-1c-1 0-2 0-2-1zm24-1c-2-1-4-3-4-4-2-4 0-10 3-13s9-5 12-4c1 0 9 12 9 14 0 1-2 3-4 5-3 3-5 4-8 4s-6-1-8-2zm-100-5c-8-2-9-14-2-19 4-3 10-2 13 0l2 3-4 8-4 9h-1c-1 0-3-1-4-1zm147-1c-6-4-7-7-8-15 0-8 2-13 8-17 4-2 10-4 11-3 3 1 11 24 11 30s-15 9-22 5zm-38-21-8-8 1-3c2-3 9-7 14-7 9 0 16 10 11 19-1 4-6 8-8 8-1 0-5-4-10-9zm-64 2c-5-5-5-13 0-16 4-2 17-3 18-1 3 2 3 11 0 14-5 7-13 8-18 3zm199-4c0-2-2-5-3-7-3-4-3-4-1-10 2-4 2-8 2-18v-15l-1-3h3l4 1-1 1c0 1-1 13-1 28v27zm-211-16c-2-6-1-12 4-15 11-6 23-1 22 10v4h-7c-4 1-9 2-11 2-2 1-4 2-5 2h-2zm-33 0c-5-1-10-3-11-5s-2-5-2-7c-1-4-1-5 4-9 2-3 7-7 11-9l6-4 4 2c5 4 8 9 8 16 0 10-10 19-20 16zm76-12c-10-5-13-18-7-28 5-7 5-8 17-6 6 1 11 2 13 3 3 2 4 7 4 15-1 8-3 13-9 16-5 2-13 3-18 0zm119-28c-6-2-13-9-13-14v-2l5-1c4-1 5-1 9 2l5 3-3 2c-2 1-4 3-4 3 0 2 6 5 8 5 6 0 12-6 12-12v-3h1c3 0 2 7-2 11-5 6-11 8-18 6zm47 0c-6-2-13-9-13-14v-2h3c2-1 4-1 5-2h2v3l6 2v1s-1 2-3 2l-2 2 1 2c0 1 2 2 4 3 7 3 16-3 15-10v-4h1s1 0 2 1l1 1v3c-3 9-13 15-22 12zm-60-21c5-17 27-18 33-3l2 4c0 1-3 0-5 0-4-1-21-1-27 1h-3zm47-1c1-1 2-4 4-6 8-10 24-8 29 4l2 4c0 1-3 0-5 0-4-1-21-1-27 1h-3zm-187 151c-3-3-2-8 3-10 4-1 7 1 7 5 0 3-1 4-4 6-3 1-4 1-6-1zm24-17c-1-3-1-6 2-8 1-2 6-2 8-1 2 2 1 8-1 9-2 3-8 2-9 0z" fill="#5c6439"/><path d="m1 327v-326h353v326zm184-20c6 0 24-1 40-2s33-2 39-3c10-1 24-5 30-8 9-5 19-17 25-30 8-16 11-35 10-63-1-10-1-24-1-31-1-8-1-20-2-28-1-15 0-54 1-57 1 0 3-2 4-3 8-4 12-10 12-18 0-20-26-28-36-11-6 9-5 17 4 26 4 4 5 6 6 10 1 7-1 27-2 31l-2 4s-2-1-4-2c-5-2-11-3-18-1-5 2-6 2-7 1-1-2-3-13-3-24 0-12 1-15 4-16 4-2 10-8 11-13 2-9-2-19-10-23-14-7-29 3-29 18 0 3 0 7 1 9 2 3 7 7 11 10 1 1 2 2 2 18 0 12 0 22-1 32-1 7-2 20-2 29v15l-3 2c-4 1-12 1-14 0h-2l1-7c1-14-5-37-13-52-12-21-35-39-57-45-16-4-38-5-56-3-37 5-66 25-82 58-6 13-9 22-10 35-1 31 12 60 35 78 4 3 7 6 7 6v1l-5 1c-15 3-23 14-16 20l2 2c0 1-6 3-13 6-23 9-29 13-29 19v2h4c2 0 7 1 12 3 10 3 20 3 36 1 10-1 12-1 18 0 14 4 15 4 28 3 26-4 28-4 39 0 5 2 11 2 35 0zm-37-4c-7-3-16-3-32 0s-18 3-30-1c-9-2-10-2-19-1-16 2-28 1-37-1-4-1-8-3-8-3h-4l-2 1v-1c0-4 6-7 28-16 15-6 15-6 20-5 17 3 48 5 70 3 36-3 59-9 80-23 12-7 15-10 25-20 14-14 24-29 29-44 2-6 2-9 3-27 0-12 0-26 1-31 2-11 2-44 1-48l-1-2h7v15c0 12 0 17 1 20l2 5-2 1-1 1v1c1 0 3-1 6-1 7-3 19-4 23-2 6 4 11 12 15 27 2 7 2 14 2 60 0 21 0 23-2 34-6 24-19 42-35 48s-27 8-63 9c-15 1-35 2-44 3-21 1-26 1-33-2zm-83-8c15-4 19-4 28 0 9 3 10 3 23-1 13-3 19-3 29 1 10 3 15 3 27 0 9-2 10-2 20-1 9 1 12 1 19 0 4-1 12-2 17-3 5 0 9-1 10-1v-1h-8c-4 0-12 1-16 2-7 1-12 1-21 1-12-1-15-1-23 1-12 3-14 3-24-1-12-3-15-4-27-1-14 4-18 4-29 0-8-2-8-2-18 0-5 1-12 3-14 3-4 1-8 1-16 0-10-1-18-1-20 1v1h8c5 0 10 0 13 1 6 1 9 1 22-2zm-9-7 1-1v-1l-1-2h-2c-1 0-2 1-3 1l-2 2 1 1v2h3c1-1 3-2 3-2zm47-4 3-1-7-1c-4 0-8-1-9 0h-1v2h3c2 0 3 0 4 1 2 1 4 1 7-1zm103-5 2-1-1-1c0-1-4-1-6 0l-2 2v1c1 1 4 1 7-1zm-27-3c3 0 5-2 5-2l1-1-7 2c-4 1-9 2-11 2s-4 1-5 1v1h6c3-1 8-2 11-3zm125-4v-3h-1c-1 0-2 2-2 3v3h1c1 0 2-2 2-3zm-55-10 2-2v-1l-1-1-2 1c-1 1-2 2-2 3v1h1s1-1 2-1zm20-26 1-2-2-2-2 1c-1 1-2 3-2 4v1h2c1 0 2-1 3-2zm47-7v-4h-1l-1 1c-1 1-2 3-2 4v3h3zm-7-43c1-1 3-2 4-3l1-2v-1h-1l-3 2c-4 4-9 5-14 3-2-1-4-1-4-1h-1l2 2c3 3 12 3 16 0zm3-24 3-2v-1l-5 1c-7 0-18-4-21-10l-1-2 3-3v-1h-1l-3 1c-2 1-3 2-4 3l-1 1h1c1 0 4 2 7 5 4 4 7 6 11 7 7 2 6 2 11 1zm-220 115c0-1-6-1-13-2-13-1-20-3-24-6l-3-2 2-3c2-4 8-8 16-11 7-2 7-2 14 2 10 5 18 8 31 9 16 2 36 0 47-4 2-1 4-2 5-2 8 0 28-7 38-14 22-15 37-35 43-58l1-4 5 1c3 0 7 0 9-1s4-1 5-1c1 1-2 11-7 20-11 24-31 44-56 57-23 13-48 18-89 19zm26-16c-9-1-21-3-23-4v-1l2-3c5-5 5-14-1-19-3-4-10-6-15-6-5 1-11 5-12 9v2h-1c-1 0-5-4-10-8-5-6-9-11-12-18-3-5-5-9-5-10v-2l3 1c5 1 10-1 14-5 10-9 11-22 2-32-5-6-14-8-21-4l-4 2 1-3c2-17 9-33 19-46l5-7 1 3c1 8 8 13 18 14 13 1 24-12 20-25-1-3-3-6-6-9l-5-5 8-3c11-4 25-7 40-8h12l-3 4c-4 6-5 16-3 22 3 8 12 14 20 14 4 0 11-3 14-5 6-6 9-18 6-26-1-2-2-5-2-5 1 0 8 3 14 6 14 6 27 18 36 31l4 6c0 1-3 1-6 2-16 6-20 29-6 39 4 2 5 2 10 2s8 0 11-2l4-2v11c-1 13-3 21-8 31-11 23-34 43-59 51-4 1-7 2-8 2v-1l4-2c10-6 23-23 28-36l1-5 2 1c1 0 3 0 5 1 11 1 19-15 13-25-3-5-7-6-13-6l-5 1v-5c-1-6-4-13-8-22l-2-5 1-1c2-1 7-5 9-8 4-9-1-21-10-23-7-2-17 2-20 8-1 1-2 3-2 3l-6-3c-7-3-15-6-24-7h-6v-3c0-4-2-9-5-13-6-5-20-3-25 4-3 4-3 12-1 15l2 3-4 3c-3 2-7 6-10 9l-5 5-1-1c0-3-5-5-9-5-6 0-13 7-14 14 0 6 6 14 12 13h3l-1 3c-1 3-1 21 0 26l1 3-2-1c-2 0-8 2-11 5-2 2-2 4-3 8 0 5 0 6 3 9s5 4 8 5c5 0 11-2 12-6 1-1 2-3 2-3l6 6c4 3 9 7 12 8l6 2v1c0 1 0 1-1 1-2 2-2 8-1 11 4 9 17 7 20-2 1-3 1-5 0-6l-1-3 6-1c7-1 15-5 19-9l4-3 1 3c3 3 6 4 10 3 4-2 7-7 5-11-1-3-4-6-7-6h-2v-2c1-1 2-4 2-6l1-5h2c0 1 2 0 4-2s3-3 3-6c0-4-5-9-8-9h-3v2h-1s-3-2-5-4c-4-5-5-5-5-10s0-6-2-8c-7-7-20-2-18 7l1 2h-2c-1 0-4 1-7 3l-6 3-1-2c-1-1-5-1-9 2-5 3-3 12 3 14 2 0 3 1 5 4 1 4 6 7 9 7h2v-3h-3c-6-2-9-11-5-17 3-6 15-9 24-7 2 0 6 2 8 4 10 6 13 20 7 32-1 3-2 6-3 6 0 0-2-2-3-3-4-4-9-5-14-2-7 3-9 11-5 16l2 3-2 1h-10c-11 0-18-2-27-9-6-4-14-14-14-17v-1l3 1c4 0 11-3 14-7 2-4 1-11-2-15-3-5-13-6-18-3l-1 1h-1c-1-2 3-16 7-24 2-6 5-9 10-14 4-4 10-9 12-10l4-2v5c0 9 5 14 13 14 10 0 17-8 16-18l-1-5 7 2c9 1 17 4 24 9 6 3 10 7 10 8v1h-4c-5 1-10 6-11 12-1 8 2 13 11 15 5 1 11 0 15-5l3-3 2 8c2 4 3 12 4 16v8l-3-2c-11-6-22 3-20 17 1 6 6 9 12 10h5l-4 7c-3 8-12 17-19 22l-4 3c-1 0-1-3-2-5-3-8-10-12-18-10-12 4-17 13-12 21l1 3v1zm10-49c6-5 3-15-4-15-4 0-9 5-9 9 0 7 8 11 13 6zm27-18c2-2 2-3 2-6-1-6-3-7-8-7s-9 3-9 9c0 8 9 11 15 4zm-12 63c-2-3-3-8-1-11l5-5c3-2 4-2 9-2 4 0 5 0 8 2 1 2 3 5 4 7l1 4-2 2c-2 2-16 6-20 6-2 0-3-1-4-3zm-58-5c-7-4-15-10-15-11s1-3 2-4c7-9 21-8 25 2 2 4 2 5 1 8-1 4-5 8-6 8s-4-1-7-3zm33-8c-3-2-4-8-1-12 1-2 2-2 6-1 6 0 8 2 8 6 0 7-8 11-13 7zm24-21c-3-3-3-6-2-10 4-6 13-7 17-3 2 4 1 7-5 11-3 2-7 4-7 4-1 0-2-1-3-2zm23-3c-3-2-2-5 0-8l3-3 3 1c3 1 4 3 4 6 0 5-7 8-10 4zm-93-2c-8-6-3-20 8-20 2 0 3 1 5 5 4 7 4 11 0 14-3 2-10 3-13 1zm118-2c-4-2-6-7-6-12 0-7 8-13 14-11s7 6 4 16c-1 6-2 6-7 8-1 0-3-1-5-1zm18-7c-2-1-2-2-1-7 1-4 1-9 1-12v-5h3c4-1 10 1 11 3 2 3 2 12 1 16-1 2-3 4-4 4-3 2-9 2-11 1zm-166-10c-2-1-3-2-4-5-2-7-3-15-3-21 0-7 2-9 8-11 8-2 14 1 18 9 4 7 4 12 0 19s-13 11-19 9zm45-2c-2-2-4-10-4-15 0-3 4-5 10-5 3 0 5 1 7 3 3 2 3 4 3 8s0 5-2 7c-4 3-12 4-14 2zm83-10c-1-3-2-6-1-6 0-1 1-1 3-1h3l1 3c1 2 2 4 1 5 0 2-3 4-5 4h-1zm-54-4c-3-1-3-7 0-9 2-2 6-3 7-1v1l-1 1c0 1-1 3-2 5-1 4-2 4-4 3zm37-16c-1 0-3 0-6-1h-5l-1-3c0-4 2-7 7-7 2 0 4 0 5 1 2 1 4 7 3 10v1h-1c-1 0-2 0-2-1zm24-1c-2-1-4-3-4-4-2-4 0-10 3-13s9-5 12-4c1 0 9 12 9 14 0 1-2 3-4 5-3 3-5 4-8 4s-6-1-8-2zm-100-5c-8-2-9-14-2-19 4-3 10-2 13 0l2 3-4 8-4 9h-1c-1 0-3-1-4-1zm147-1c-6-4-7-7-8-15 0-8 2-13 8-17 4-2 10-4 11-3 3 1 11 24 11 30s-15 9-22 5zm-38-21-8-8 1-3c2-3 9-7 14-7 9 0 16 10 11 19-1 4-6 8-8 8-1 0-5-4-10-9zm-64 2c-5-5-5-13 0-16 4-2 17-3 18-1 3 2 3 11 0 14-5 7-13 8-18 3zm199-4c0-2-2-5-3-7-3-4-3-4-1-10 2-4 2-8 2-18v-15l-1-3h3l4 1-1 1c0 1-1 13-1 28v27zm-211-16c-2-6-1-12 4-15 11-6 23-1 22 10v4h-7c-4 1-9 2-11 2-2 1-4 2-5 2h-2zm-33 0c-5-1-10-3-11-5s-2-5-2-7c-1-4-1-5 4-9 2-3 7-7 11-9l6-4 4 2c5 4 8 9 8 16 0 10-10 19-20 16zm76-12c-10-5-13-18-7-28 5-7 5-8 17-6 6 1 11 2 13 3 3 2 4 7 4 15-1 8-3 13-9 16-5 2-13 3-18 0zm119-28c-6-2-13-9-13-14v-2l5-1c4-1 5-1 9 2l5 3-3 2c-2 1-4 3-4 3 0 2 6 5 8 5 6 0 12-6 12-12v-3h1c3 0 2 7-2 11-5 6-11 8-18 6zm47 0c-6-2-13-9-13-14v-2h3c2-1 4-1 5-2h2v3l6 2v1s-1 2-3 2l-2 2 1 2c0 1 2 2 4 3 7 3 16-3 15-10v-4h1s1 0 2 1l1 1v3c-3 9-13 15-22 12zm-60-21c5-17 27-18 33-3l2 4c0 1-3 0-5 0-4-1-21-1-27 1h-3zm47-1c1-1 2-4 4-6 8-10 24-8 29 4l2 4c0 1-3 0-5 0-4-1-21-1-27 1h-3zm-187 151c-3-3-2-8 3-10 4-1 7 1 7 5 0 3-1 4-4 6-3 1-4 1-6-1zm24-17c-1-3-1-6 2-8 1-2 6-2 8-1 2 2 1 8-1 9-2 3-8 2-9 0z" fill="#985130"/><path d="m1 327v-326h353v326zm184-20c6 0 24-1 40-2s33-2 39-3c10-1 24-5 30-8 9-5 19-17 25-30 8-16 11-35 10-63-1-10-1-24-1-31-1-8-1-20-2-28-1-15 0-54 1-57 1 0 3-2 4-3 8-4 12-10 12-18 0-20-26-28-36-11-6 9-5 17 4 26 4 4 5 6 6 10 1 7-1 27-2 31l-2 4s-2-1-4-2c-5-2-11-3-18-1-5 2-6 2-7 1-1-2-3-13-3-24 0-12 1-15 4-16 4-2 10-8 11-13 2-9-2-19-10-23-14-7-29 3-29 18 0 3 0 7 1 9 2 3 7 7 11 10 1 1 2 2 2 18 0 12 0 22-1 32-1 7-2 20-2 29v15l-3 2c-4 1-12 1-14 0h-2l1-7c1-14-5-37-13-52-12-21-35-39-57-45-16-4-38-5-56-3-37 5-66 25-82 58-6 13-9 22-10 35-1 31 12 60 35 78 4 3 7 6 7 6v1l-5 1c-15 3-23 14-16 20l2 2c0 1-6 3-13 6-23 9-29 13-29 19v2h4c2 0 7 1 12 3 10 3 20 3 36 1 10-1 12-1 18 0 14 4 15 4 28 3 26-4 28-4 39 0 5 2 11 2 35 0zm-37-4c-7-3-16-3-32 0s-18 3-30-1c-9-2-10-2-19-1-16 2-28 1-37-1-4-1-8-3-8-3h-4l-2 1v-1c0-4 6-7 28-16 15-6 15-6 20-5 17 3 48 5 70 3 36-3 59-9 80-23 12-7 15-10 25-20 14-14 24-29 29-44 2-6 2-9 3-27 0-12 0-26 1-31 2-11 2-44 1-48l-1-2h7v15c0 12 0 17 1 20l2 5-2 1-1 1v1c1 0 3-1 6-1 7-3 19-4 23-2 6 4 11 12 15 27 2 7 2 14 2 60 0 21 0 23-2 34-6 24-19 42-35 48s-27 8-63 9c-15 1-35 2-44 3-21 1-26 1-33-2zm-83-8c15-4 19-4 28 0 9 3 10 3 23-1 13-3 19-3 29 1 10 3 15 3 27 0 9-2 10-2 20-1 9 1 12 1 19 0 4-1 12-2 17-3 5 0 9-1 10-1v-1h-8c-4 0-12 1-16 2-7 1-12 1-21 1-12-1-15-1-23 1-12 3-14 3-24-1-12-3-15-4-27-1-14 4-18 4-29 0-8-2-8-2-18 0-5 1-12 3-14 3-4 1-8 1-16 0-10-1-18-1-20 1v1h8c5 0 10 0 13 1 6 1 9 1 22-2zm-9-7 1-1v-1l-1-2h-2c-1 0-2 1-3 1l-2 2 1 1v2h3c1-1 3-2 3-2zm47-4 3-1-7-1c-4 0-8-1-9 0h-1v2h3c2 0 3 0 4 1 2 1 4 1 7-1zm103-5 2-1-1-1c0-1-4-1-6 0l-2 2v1c1 1 4 1 7-1zm-27-3c3 0 5-2 5-2l1-1-7 2c-4 1-9 2-11 2s-4 1-5 1v1h6c3-1 8-2 11-3zm125-4v-3h-1c-1 0-2 2-2 3v3h1c1 0 2-2 2-3zm-55-10 2-2v-1l-1-1-2 1c-1 1-2 2-2 3v1h1s1-1 2-1zm20-26 1-2-2-2-2 1c-1 1-2 3-2 4v1h2c1 0 2-1 3-2zm47-7v-4h-1l-1 1c-1 1-2 3-2 4v3h3zm-7-43c1-1 3-2 4-3l1-2v-1h-1l-3 2c-4 4-9 5-14 3-2-1-4-1-4-1h-1l2 2c3 3 12 3 16 0zm3-24 3-2v-1l-5 1c-7 0-18-4-21-10l-1-2 3-3v-1h-1l-3 1c-2 1-3 2-4 3l-1 1h1c1 0 4 2 7 5 4 4 7 6 11 7 7 2 6 2 11 1zm-223 114c-2 0-4-1-4-1 0-1-2-1-3-1h-2l2-2c5-4 12-5 27-4 19 1 41 0 52-2 17-3 36-11 54-22 10-7 26-23 30-30 3-8 10-26 10-28v-2h1l1 1 1 4c0 2 0 7 1 10 1 6 0 8-9 21-12 16-27 29-45 38-24 13-48 18-89 19-13 0-25 0-27-1zm54-19c-2-3-3-8-1-11l5-5c3-2 4-2 9-2 4 0 5 0 8 2 1 2 3 5 4 7l1 4-2 2c-2 2-16 6-20 6-2 0-3-1-4-3zm-15-1c-7-1-13-2-17-3s-8-2-9-2h-1v-5c0-10-6-17-16-18-4 0-5 0-9 2l-5 3-3-3c-8-10-10-13-14-19-2-5-4-7-5-7h-2v-1c1 0 2-1 4-2 2 0 5-2 7-4 10-9 11-22 2-32-3-4-8-6-13-6h-5v-2h4l1-4c1-8 5-20 9-28 3-5 4-9 4-10v-1h1s2 2 3 3c3 4 10 7 16 7 13 0 22-13 19-25-1-2-3-6-5-9-2-2-4-4-4-4v-1l8-3c4-1 8-3 9-3 1-2 18-4 29-5h12l-3 4c-4 6-5 16-3 22 3 8 12 14 20 14 4 0 11-3 14-5 6-6 9-18 6-26-1-2-2-5-2-5 1 0 8 3 14 6 14 6 27 18 36 31l4 6c0 1-3 1-6 2-16 6-20 29-6 39 4 2 5 2 10 2s8 0 11-2l4-2v11c-1 6-2 14-3 18-3 12-11 26-22 37-9 10-30 24-36 24h-2l6-5c2-3 7-8 9-11 4-7 9-19 8-20v-1h4c9 0 16-7 16-17 0-5-3-11-7-12-1-1-2-2-2-2v-1h-7v-3c0-7-7-26-10-27l-1-1 3-3c4-5 5-7 5-12 0-8-5-14-11-16-7-2-17 2-20 8-1 1-2 3-2 3l-6-3c-7-3-15-6-24-7h-6v-3c0-4-2-9-5-13-6-5-20-3-25 4-3 4-3 12-1 15l2 3-3 2c-2 1-3 2-4 2l2-2 3-2h-2c-1 0-12 8-12 9 0 0-1 2-2 3l-2 2-3-1c-6-3-11-2-16 4-6 6-5 14 2 19l4 3-1 2c-2 1-1 22 1 25l1 2v-2l1 1 1 2v-6l1 2c1 2 1 4 0 4v1l-1-1c-2-1-8 2-11 5-2 2-2 4-3 8 0 5 0 6 3 9 2 3 4 4 7 5 4 0 10-1 12-4l2-2 5 5c2 2 7 5 11 7l7 4v3c-1 5 1 11 5 12 8 3 16-2 16-12v-3h3l-1 2v1h4c6-1 13-4 18-8l4-2-1-1c0-1 0-1 1-2v-1l2 1c4 4 11 2 13-3 1-5 1-9-1-11-1-1-1-2-1-4 0-1 1-4 1-6 0-1 1-4 3-5 3-4 3-8-1-13-2-1-5-3-6-3h-2v-1c0-2-7-10-9-10l-1 1-1-5c-1-5-5-8-10-8-6 0-10 2-11 7v4h-1c-1 0-4 1-8 3l-5 3-2-1c-1-1-7 0-9 2-1 1-1 3-2 5 0 3 0 4 2 6s4 3 5 3 2 1 4 4c1 4 6 7 9 7h2v-3h-3c-6-2-9-11-5-17 3-6 15-9 24-7 2 0 6 2 8 4 10 6 13 20 7 32-1 3-2 6-3 6 0 0-2-2-3-3-4-4-9-5-14-2-7 3-9 11-5 16l2 3-2 1h-10c-11 0-18-2-27-9-6-4-14-14-14-17v-1l3 1c4 0 11-3 14-7 2-4 1-11-2-15-3-5-13-6-18-3l-1 1h-1c-1-2 3-16 7-24 2-6 5-9 10-14 4-4 10-9 12-10l4-2v5c0 9 5 14 13 14 10 0 17-8 16-18l-1-5 7 2c9 1 17 4 24 9 6 3 10 7 10 8v1h-4c-5 1-10 6-11 12-1 8 2 13 11 15 5 1 11 0 15-5l3-3 2 8c2 4 3 12 4 16v8l-3-2c-11-6-22 3-20 17 1 6 6 9 12 10h5l-3 7c-2 4-5 7-6 8l-1 1 2-3c2-3 3-5 3-6v-1l-5 4c-2 3-7 7-11 9-3 3-6 6-6 6l-1 2-4-5c-6-6-13-7-22-2-4 3-6 7-7 12v6zm0-44c6-5 3-15-4-15-4 0-9 5-9 9 0 7 8 11 13 6zm27-18c2-2 2-3 2-6-1-6-3-7-8-7s-9 3-9 9c0 8 9 11 15 4zm-24-29 5-1v-2h-2c-2 0-10 4-11 5v1h2c1-1 4-2 6-3zm-46 87c-7-4-15-10-15-11s1-3 2-4c7-9 21-8 25 2 2 4 2 5 1 8-1 4-5 8-6 8s-4-1-7-3zm33-8c-3-2-4-8-1-12 1-2 2-2 6-1 6 0 8 2 8 6 0 7-8 11-13 7zm24-21c-3-3-3-6-2-10 4-6 13-7 17-3 2 4 1 7-5 11-3 2-7 4-7 4-1 0-2-1-3-2zm23-3c-3-2-2-5 0-8l3-3 3 1c3 1 4 3 4 6 0 5-7 8-10 4zm-93-2c-8-6-3-20 8-20 2 0 3 1 5 5 4 7 4 11 0 14-3 2-10 3-13 1zm118-2c-4-2-6-7-6-12 0-7 8-13 14-11s7 6 4 16c-1 6-2 6-7 8-1 0-3-1-5-1zm18-7c-2-1-2-2-1-7 1-4 1-9 1-12v-5h3c4-1 10 1 11 3 2 3 2 12 1 16-1 2-3 4-4 4-3 2-9 2-11 1zm-166-10c-2-1-3-2-4-5-2-7-3-15-3-21 0-7 2-9 8-11 8-2 14 1 18 9 4 7 4 12 0 19s-13 11-19 9zm45-2c-2-2-4-10-4-15 0-3 4-5 10-5 3 0 5 1 7 3 3 2 3 4 3 8s0 5-2 7c-4 3-12 4-14 2zm83-10c-1-3-2-6-1-6 0-1 1-1 3-1h3l1 3c1 2 2 4 1 5 0 2-3 4-5 4h-1zm-54-4c-3-1-3-7 0-9 2-2 6-3 7-1v1l-1 1c0 1-1 3-2 5-1 4-2 4-4 3zm37-16c-1 0-3 0-6-1h-5l-1-3c0-4 2-7 7-7 2 0 4 0 5 1 2 1 4 7 3 10v1h-1c-1 0-2 0-2-1zm24-1c-2-1-4-3-4-4-2-4 0-10 3-13s9-5 12-4c1 0 9 12 9 14 0 1-2 3-4 5-3 3-5 4-8 4s-6-1-8-2zm-100-5c-8-2-9-14-2-19 4-3 10-2 13 0l2 3-4 8-4 9h-1c-1 0-3-1-4-1zm147-1c-6-4-7-7-8-15 0-8 2-13 8-17 4-2 10-4 11-3 3 1 11 24 11 30s-15 9-22 5zm-38-21-8-8 1-3c2-3 9-7 14-7 9 0 16 10 11 19-1 4-6 8-8 8-1 0-5-4-10-9zm-64 2c-5-5-5-13 0-16 4-2 17-3 18-1 3 2 3 11 0 14-5 7-13 8-18 3zm199-4c0-2-2-5-3-7-3-4-3-4-1-10 2-4 2-8 2-18v-15l-1-3h3l4 1-1 1c0 1-1 13-1 28v27zm-211-16c-2-6-1-12 4-15 11-6 23-1 22 10v4h-7c-4 1-9 2-11 2-2 1-4 2-5 2h-2zm-33 0c-5-1-10-3-11-5s-2-5-2-7c-1-4-1-5 4-9 2-3 7-7 11-9l6-4 4 2c5 4 8 9 8 16 0 10-10 19-20 16zm76-12c-10-5-13-18-7-28 5-7 5-8 17-6 6 1 11 2 13 3 3 2 4 7 4 15-1 8-3 13-9 16-5 2-13 3-18 0zm119-28c-6-2-13-9-13-14v-2l5-1c4-1 5-1 9 2l5 3-3 2c-2 1-4 3-4 3 0 2 6 5 8 5 6 0 12-6 12-12v-3h1c3 0 2 7-2 11-5 6-11 8-18 6zm47 0c-6-2-13-9-13-14v-2h3c2-1 4-1 5-2h2v3l6 2v1s-1 2-3 2l-2 2 1 2c0 1 2 2 4 3 7 3 16-3 15-10v-4h1s1 0 2 1l1 1v3c-3 9-13 15-22 12zm-60-21c5-17 27-18 33-3l2 4c0 1-3 0-5 0-4-1-21-1-27 1h-3zm47-1c1-1 2-4 4-6 8-10 24-8 29 4l2 4c0 1-3 0-5 0-4-1-21-1-27 1h-3zm-187 151c-3-3-2-8 3-10 4-1 7 1 7 5 0 3-1 4-4 6-3 1-4 1-6-1zm24-17c-1-3-1-6 2-8 1-2 6-2 8-1 2 2 1 8-1 9-2 3-8 2-9 0z" fill="#858343"/><path d="m1 327v-326h353v326zm184-20c6 0 24-1 40-2s33-2 39-3c10-1 24-5 30-8 9-5 19-17 25-30 8-16 11-35 10-63-1-10-1-24-1-31-1-8-1-20-2-28-1-15 0-54 1-57 1 0 3-2 4-3 8-4 12-10 12-18 0-20-26-28-36-11-6 9-5 17 4 26 4 4 5 6 6 10 1 7-1 27-2 31l-2 4s-2-1-4-2c-5-2-11-3-18-1-5 2-6 2-7 1-1-2-3-13-3-24 0-12 1-15 4-16 4-2 10-8 11-13 2-9-2-19-10-23-14-7-29 3-29 18 0 3 0 7 1 9 2 3 7 7 11 10 1 1 2 2 2 18 0 12 0 22-1 32-1 7-2 20-2 29v15l-3 2c-4 1-12 1-14 0h-2l1-7c1-14-5-37-13-52-12-21-35-39-57-45-16-4-38-5-56-3-37 5-66 25-82 58-6 13-9 22-10 35-1 31 12 60 35 78 4 3 7 6 7 6v1l-5 1c-15 3-23 14-16 20l2 2c0 1-6 3-13 6-23 9-29 13-29 19v2h4c2 0 7 1 12 3 10 3 20 3 36 1 10-1 12-1 18 0 14 4 15 4 28 3 26-4 28-4 39 0 5 2 11 2 35 0zm-37-4c-7-3-16-3-32 0s-18 3-30-1c-9-2-10-2-21-1-15 1-29 1-37-1l-5-2v-2h7c3 0 10 0 14 1 7 1 8 1 21-2 16-4 19-4 28 0 9 3 10 3 23-1 13-3 19-3 29 1 10 3 15 3 27 0 9-2 10-2 20-1 9 1 12 1 19 0 4-1 12-2 17-3 5 0 9-1 10-1v-1h-8c-4 0-12 1-16 2-7 1-12 1-21 1-12-1-15-1-23 1-12 3-14 3-24-1-12-3-15-4-27-1-14 4-18 4-28 0-9-2-11-2-28 2-8 2-17 3-18 1l-1-1h2c2 0 4-1 5-2 5-4 43-9 45-6 1 1 3 1 6 0 2-1 9-1 18-2 18 0 38-2 40-3 0 0 4-1 8-1 4-1 10-2 16-4l9-4h-1v-1l1 1h2l2-2c1-1 3-2 4-3 7 0 16-7 33-24 16-16 22-24 28-35 8-16 8-19 9-42 0-12 0-26 1-31 2-11 2-44 1-48l-1-2h7v15c0 12 0 17 1 20l2 5-2 1-1 1v1c1 0 3-1 6-1 7-3 19-4 23-2 6 4 11 12 15 27 2 7 2 14 2 60 0 21 0 23-2 34-6 24-19 42-35 48s-27 8-63 9c-15 1-35 2-44 3-21 1-26 1-33-2zm58-24 2-1-1-1c0-1-4-1-6 0l-2 2v1c1 1 4 1 7-1zm98-7v-3h-1c-1 0-2 2-2 3v3h1c1 0 2-2 2-3zm-55-10 2-2v-1l-1-1-2 1c-1 1-2 2-2 3v1h1s1-1 2-1zm20-26 1-2-2-2-2 1c-1 1-2 3-2 4v1h2c1 0 2-1 3-2zm47-7v-4h-1l-1 1c-1 1-2 3-2 4v3h3zm-7-43c1-1 3-2 4-3l1-2v-1h-1l-3 2c-4 4-9 5-14 3-2-1-4-1-4-1h-1l2 2c3 3 12 3 16 0zm3-24 3-2v-1l-5 1c-7 0-18-4-21-10l-1-2 3-3v-1h-1l-3 1c-2 1-3 2-4 3l-1 1h1c1 0 4 2 7 5 4 4 7 6 11 7 7 2 6 2 11 1zm-223 114c-2 0-4-1-4-1 0-1-2-1-3-1h-2l2-2c5-4 12-5 27-4 19 1 41 0 52-2 17-3 36-11 54-22 10-7 26-23 30-30 3-8 10-26 10-28v-2h1l1 1 1 4c0 2 0 7 1 10 1 6 0 8-9 21-12 16-27 29-45 38-24 13-48 18-89 19-13 0-25 0-27-1zm54-19c-2-3-3-8-1-11l5-5c3-2 4-2 9-2 4 0 5 0 8 2 1 2 3 5 4 7l1 4-2 2c-2 2-16 6-20 6-2 0-3-1-4-3zm-15-1c-7-1-13-2-17-3s-8-2-9-2h-1v-5c0-10-6-17-16-18-4 0-5 0-9 2l-5 3-3-3c-8-10-10-13-14-19-2-5-4-7-5-7h-2v-1c1 0 2-1 4-2 2 0 5-2 7-4 10-9 11-22 2-32-3-4-8-6-13-6h-5v-2h4l1-4c1-8 5-20 9-28 3-5 4-9 4-10v-1h1s2 2 3 3c3 4 10 7 16 7 13 0 22-13 19-25-1-2-3-6-5-9-2-2-4-4-4-4v-1l8-3c4-1 8-3 9-3 1-2 18-4 29-5h12l-3 4c-4 6-5 16-3 22 3 8 12 14 20 14 4 0 11-3 14-5 6-6 9-18 6-26-1-2-2-5-2-5 1 0 8 3 14 6 14 6 27 18 36 31l4 6c0 1-3 1-6 2-16 6-20 29-6 39 4 2 5 2 10 2s8 0 11-2l4-2v11c-1 6-2 14-3 18-3 12-11 26-22 37-9 10-30 24-36 24h-2l6-5c2-3 7-8 9-11 4-7 9-19 8-20v-1h4c9 0 16-7 16-17 0-5-3-11-7-12-1-1-2-2-2-2v-1h-7v-3c0-7-7-26-10-27l-1-1 3-3c4-5 5-7 5-12 0-8-5-14-11-16-7-2-17 2-20 8-1 1-2 3-2 3l-6-3c-7-3-15-6-24-7h-6v-3c0-4-2-9-5-13-6-5-20-3-25 4-3 4-3 12-1 15l2 3-3 2c-2 1-3 2-4 2l2-2 3-2h-2c-1 0-12 8-12 9 0 0-1 2-2 3l-2 2-3-1c-6-3-11-2-16 4-6 6-5 14 2 19l4 3-1 2c-2 1-1 22 1 25l1 2v-2l1 1 1 2v-6l1 2c1 2 1 4 0 4v1l-1-1c-2-1-8 2-11 5-2 2-2 4-3 8 0 5 0 6 3 9 2 3 4 4 7 5 4 0 10-1 12-4l2-2 5 5c2 2 7 5 11 7l7 4v3c-1 5 1 11 5 12 8 3 16-2 16-12v-3h3l-1 2v1h4c6-1 13-4 18-8l4-2-1-1c0-1 0-1 1-2v-1l2 1c4 4 11 2 13-3 1-5 1-9-1-11-1-1-1-2-1-4 0-1 1-4 1-6 0-1 1-4 3-5 3-4 3-8-1-13-2-1-5-3-6-3h-2v-1c0-2-7-10-9-10l-1 1-1-5c-1-5-5-8-10-8-6 0-10 2-11 7v4h-1c-1 0-4 1-8 3l-5 3-2-1c-1-1-7 0-9 2-1 1-1 3-2 5 0 3 0 4 2 6s4 3 5 3 2 1 4 4c1 4 6 7 9 7h2v-3h-3c-6-2-9-11-5-17 3-6 15-9 24-7 2 0 6 2 8 4 10 6 13 20 7 32-1 3-2 6-3 6 0 0-2-2-3-3-4-4-9-5-14-2-7 3-9 11-5 16l2 3-2 1h-10c-11 0-18-2-27-9-6-4-14-14-14-17v-1l3 1c4 0 11-3 14-7 2-4 1-11-2-15-3-5-13-6-18-3l-1 1h-1c-1-2 3-16 7-24 2-6 5-9 10-14 4-4 10-9 12-10l4-2v5c0 9 5 14 13 14 10 0 17-8 16-18l-1-5 7 2c9 1 17 4 24 9 6 3 10 7 10 8v1h-4c-5 1-10 6-11 12-1 8 2 13 11 15 5 1 11 0 15-5l3-3 2 8c2 4 3 12 4 16v8l-3-2c-11-6-22 3-20 17 1 6 6 9 12 10h5l-3 7c-2 4-5 7-6 8l-1 1 2-3c2-3 3-5 3-6v-1l-5 4c-2 3-7 7-11 9-3 3-6 6-6 6l-1 2-4-5c-6-6-13-7-22-2-4 3-6 7-7 12v6zm0-44c6-5 3-15-4-15-4 0-9 5-9 9 0 7 8 11 13 6zm27-18c2-2 2-3 2-6-1-6-3-7-8-7s-9 3-9 9c0 8 9 11 15 4zm-24-29 5-1v-2h-2c-2 0-10 4-11 5v1h2c1-1 4-2 6-3zm-46 87c-7-4-15-10-15-11s1-3 2-4c7-9 21-8 25 2 2 4 2 5 1 8-1 4-5 8-6 8s-4-1-7-3zm33-8c-3-2-4-8-1-12 1-2 2-2 6-1 6 0 8 2 8 6 0 7-8 11-13 7zm24-21c-3-3-3-6-2-10 4-6 13-7 17-3 2 4 1 7-5 11-3 2-7 4-7 4-1 0-2-1-3-2zm23-3c-3-2-2-5 0-8l3-3 3 1c3 1 4 3 4 6 0 5-7 8-10 4zm-93-2c-8-6-3-20 8-20 2 0 3 1 5 5 4 7 4 11 0 14-3 2-10 3-13 1zm118-2c-4-2-6-7-6-12 0-7 8-13 14-11s7 6 4 16c-1 6-2 6-7 8-1 0-3-1-5-1zm18-7c-2-1-2-2-1-7 1-4 1-9 1-12v-5h3c4-1 10 1 11 3 2 3 2 12 1 16-1 2-3 4-4 4-3 2-9 2-11 1zm-166-10c-2-1-3-2-4-5-2-7-3-15-3-21 0-7 2-9 8-11 8-2 14 1 18 9 4 7 4 12 0 19s-13 11-19 9zm45-2c-2-2-4-10-4-15 0-3 4-5 10-5 3 0 5 1 7 3 3 2 3 4 3 8s0 5-2 7c-4 3-12 4-14 2zm83-10c-1-3-2-6-1-6 0-1 1-1 3-1h3l1 3c1 2 2 4 1 5 0 2-3 4-5 4h-1zm-54-4c-3-1-3-7 0-9 2-2 6-3 7-1v1l-1 1c0 1-1 3-2 5-1 4-2 4-4 3zm37-16c-1 0-3 0-6-1h-5l-1-3c0-4 2-7 7-7 2 0 4 0 5 1 2 1 4 7 3 10v1h-1c-1 0-2 0-2-1zm24-1c-2-1-4-3-4-4-2-4 0-10 3-13s9-5 12-4c1 0 9 12 9 14 0 1-2 3-4 5-3 3-5 4-8 4s-6-1-8-2zm-100-5c-8-2-9-14-2-19 4-3 10-2 13 0l2 3-4 8-4 9h-1c-1 0-3-1-4-1zm147-1c-6-4-7-7-8-15 0-8 2-13 8-17 4-2 10-4 11-3 3 1 11 24 11 30s-15 9-22 5zm-38-21-8-8 1-3c2-3 9-7 14-7 9 0 16 10 11 19-1 4-6 8-8 8-1 0-5-4-10-9zm-64 2c-5-5-5-13 0-16 4-2 17-3 18-1 3 2 3 11 0 14-5 7-13 8-18 3zm199-4c0-2-2-5-3-7-3-4-3-4-1-10 2-4 2-8 2-18v-15l-1-3h3l4 1-1 1c0 1-1 13-1 28v27zm-211-16c-2-6-1-12 4-15 11-6 23-1 22 10v4h-7c-4 1-9 2-11 2-2 1-4 2-5 2h-2zm-33 0c-5-1-10-3-11-5s-2-5-2-7c-1-4-1-5 4-9 2-3 7-7 11-9l6-4 4 2c5 4 8 9 8 16 0 10-10 19-20 16zm76-12c-10-5-13-18-7-28 5-7 5-8 17-6 6 1 11 2 13 3 3 2 4 7 4 15-1 8-3 13-9 16-5 2-13 3-18 0zm119-28c-6-2-13-9-13-14v-2l5-1c4-1 5-1 9 2l5 3-3 2c-2 1-4 3-4 3 0 2 6 5 8 5 6 0 12-6 12-12v-3h1c3 0 2 7-2 11-5 6-11 8-18 6zm47 0c-6-2-13-9-13-14v-2h3c2-1 4-1 5-2h2v3l6 2v1s-1 2-3 2l-2 2 1 2c0 1 2 2 4 3 7 3 16-3 15-10v-4h1s1 0 2 1l1 1v3c-3 9-13 15-22 12zm-60-21c5-17 27-18 33-3l2 4c0 1-3 0-5 0-4-1-21-1-27 1h-3zm47-1c1-1 2-4 4-6 8-10 24-8 29 4l2 4c0 1-3 0-5 0-4-1-21-1-27 1h-3zm-187 151c-3-3-2-8 3-10 4-1 7 1 7 5 0 3-1 4-4 6-3 1-4 1-6-1zm24-17c-1-3-1-6 2-8 1-2 6-2 8-1 2 2 1 8-1 9-2 3-8 2-9 0z" fill="#b26d49"/><path d="m1 327v-326h353v326zm184-20c6 0 24-1 40-2s33-2 39-3c10-1 24-5 30-8 9-5 19-17 25-30 8-16 11-35 10-63-1-10-1-24-1-31-1-8-1-20-2-28-1-15 0-54 1-57 1 0 3-2 4-3 8-4 12-10 12-18 0-20-26-28-36-11-6 9-5 17 4 26 4 4 5 6 6 10 1 7-1 27-2 31l-2 4s-2-1-4-2c-5-2-11-3-18-1-5 2-6 2-7 1-1-2-3-13-3-24 0-12 1-15 4-16 4-2 10-8 11-13 2-9-2-19-10-23-14-7-29 3-29 18 0 3 0 7 1 9 2 3 7 7 11 10 1 1 2 2 2 18 0 12 0 22-1 32-1 7-2 20-2 29v15l-3 2c-4 1-12 1-14 0h-2l1-7c1-14-5-37-13-52-12-21-35-39-57-45-16-4-38-5-56-3-37 5-66 25-82 58-6 13-9 22-10 35-1 31 12 60 35 78 4 3 7 6 7 6v1l-5 1c-15 3-23 14-16 20l2 2c0 1-6 3-13 6-23 9-29 13-29 19v2h4c2 0 7 1 12 3 10 3 20 3 36 1 10-1 12-1 18 0 14 4 15 4 28 3 26-4 28-4 39 0 5 2 11 2 35 0zm-37-4c-7-3-16-3-32 0s-18 3-30-1c-9-2-10-2-21-1-15 1-29 1-37-1l-5-2v-2h7c3 0 10 0 14 1 7 1 8 1 21-2 16-4 19-4 28 0 9 3 10 3 23-1 13-3 19-3 29 1 10 3 15 3 27 0 9-2 10-2 20-1 9 1 12 1 19 0 4-1 12-2 17-3 5 0 9-1 10-1v-1h-8c-4 0-12 1-16 2-7 1-12 1-21 1-12-1-15-1-23 1-12 3-14 3-24-1-12-3-15-4-27-1-14 4-18 4-28 0-9-2-11-2-28 2-8 2-17 3-18 1l-1-1h2c2 0 4-1 5-2 5-4 43-9 45-6 1 1 3 1 6 0 2-1 9-1 18-2 18 0 38-2 40-3 0 0 4-1 8-1 4-1 10-2 16-4l9-4h-1v-1l1 1h2l2-2c1-1 3-2 4-3 7 0 16-7 33-24 16-16 22-24 28-35 8-16 8-19 9-42 0-12 0-26 1-31 2-11 2-44 1-48l-1-2h7v15c0 12 0 17 1 20l2 5-2 1-1 1v1c1 0 3-1 6-1 7-3 19-4 23-2 6 4 11 12 15 27 2 7 2 14 2 60 0 21 0 23-2 34-6 24-19 42-35 48s-27 8-63 9c-15 1-35 2-44 3-21 1-26 1-33-2zm58-24 2-1-1-1c0-1-4-1-6 0l-2 2v1c1 1 4 1 7-1zm98-7v-3h-1c-1 0-2 2-2 3v3h1c1 0 2-2 2-3zm-55-10 2-2v-1l-1-1-2 1c-1 1-2 2-2 3v1h1s1-1 2-1zm20-26 1-2-2-2-2 1c-1 1-2 3-2 4v1h2c1 0 2-1 3-2zm47-7v-4h-1l-1 1c-1 1-2 3-2 4v3h3zm-7-43c1-1 3-2 4-3l1-2v-1h-1l-3 2c-4 4-9 5-14 3-2-1-4-1-4-1h-1l2 2c3 3 12 3 16 0zm3-24 3-2v-1l-5 1c-7 0-18-4-21-10l-1-2 3-3v-1h-1l-3 1c-2 1-3 2-4 3l-1 1h1c1 0 4 2 7 5 4 4 7 6 11 7 7 2 6 2 11 1zm-169 95c-2-3-3-8-1-11l5-5c3-2 4-2 9-2 4 0 5 0 8 2 1 2 3 5 4 7l1 4-2 2c-2 2-16 6-20 6-2 0-3-1-4-3zm-58-5c-7-4-15-10-15-11s1-3 2-4c7-9 21-8 25 2 2 4 2 5 1 8-1 4-5 8-6 8s-4-1-7-3zm33-8c-3-2-4-8-1-12 1-2 2-2 6-1 6 0 8 2 8 6 0 7-8 11-13 7zm24-21c-3-3-3-6-2-10 4-6 13-7 17-3 2 4 1 7-5 11-3 2-7 4-7 4-1 0-2-1-3-2zm23-3c-3-2-2-5 0-8l3-3 3 1c3 1 4 3 4 6 0 5-7 8-10 4zm4-5 2-2-1-1-2 2c-1 1-2 3-2 3v1h1s2-1 2-3zm-97 3c-8-6-3-20 8-20 2 0 3 1 5 5 4 7 4 11 0 14-3 2-10 3-13 1zm118-2c-4-2-6-7-6-12 0-7 8-13 14-11s7 6 4 16c-1 6-2 6-7 8-1 0-3-1-5-1zm-71-6c-3-3-2-8 3-10 4-1 7 1 7 5 0 3-1 4-4 6-3 1-4 1-6-1zm89-1c-2-1-2-2-1-7 1-4 1-9 1-12v-5h3c4-1 10 1 11 3 2 3 2 12 1 16-1 2-3 4-4 4-3 2-9 2-11 1zm-166-10c-2-1-3-2-4-5-2-7-3-15-3-21 0-7 2-9 8-11 8-2 14 1 18 9 4 7 4 12 0 19s-13 11-19 9zm45-2c-2-2-4-10-4-15 0-3 4-5 10-5 3 0 5 1 7 3 3 2 3 4 3 8s0 5-2 7c-4 3-12 4-14 2zm56-4c-1-3-1-6 2-8 1-2 6-2 8-1 2 2 1 8-1 9-2 3-8 2-9 0zm27-6c-1-3-2-6-1-6 0-1 1-1 3-1h3l1 3c1 2 2 4 1 5 0 2-3 4-5 4h-1zm-54-4c-3-1-3-7 0-9 2-2 6-3 7-1v1l-1 1c0 1-1 3-2 5-1 4-2 4-4 3zm37-16c-1 0-3 0-6-1h-5l-1-3c0-4 2-7 7-7 2 0 4 0 5 1 2 1 4 7 3 10v1h-1c-1 0-2 0-2-1zm24-1c-2-1-4-3-4-4-2-4 0-10 3-13s9-5 12-4c1 0 9 12 9 14 0 1-2 3-4 5-3 3-5 4-8 4s-6-1-8-2zm-100-5c-8-2-9-14-2-19 4-3 10-2 13 0l2 3-4 8-4 9h-1c-1 0-3-1-4-1zm147-1c-6-4-7-7-8-15 0-8 2-13 8-17 4-2 10-4 11-3 3 1 11 24 11 30s-15 9-22 5zm-38-21-8-8 1-3c2-3 9-7 14-7 9 0 16 10 11 19-1 4-6 8-8 8-1 0-5-4-10-9zm-64 2c-5-5-5-13 0-16 4-2 17-3 18-1 3 2 3 11 0 14-5 7-13 8-18 3zm199-4c0-2-2-5-3-7-3-4-3-4-1-10 2-4 2-8 2-18v-15l-1-3h3l4 1-1 1c0 1-1 13-1 28v27zm-211-16c-2-6-1-12 4-15 11-6 23-1 22 10v4h-7c-4 1-9 2-11 2-2 1-4 2-5 2h-2zm-33 0c-5-1-10-3-11-5s-2-5-2-7c-1-4-1-5 4-9 2-3 7-7 11-9l6-4 4 2c5 4 8 9 8 16 0 10-10 19-20 16zm6-28c2-1 3-2 3-2v-1l-3 2c-8 5-18 14-18 16v1l7-7c4-4 9-8 11-9zm70 16c-10-5-13-18-7-28 5-7 5-8 17-6 6 1 11 2 13 3 3 2 4 7 4 15-1 8-3 13-9 16-5 2-13 3-18 0zm119-28c-6-2-13-9-13-14v-2l5-1c4-1 5-1 9 2l5 3-3 2c-2 1-4 3-4 3 0 2 6 5 8 5 6 0 12-6 12-12v-3h1c3 0 2 7-2 11-5 6-11 8-18 6zm47 0c-6-2-13-9-13-14v-2h3c2-1 4-1 5-2h2v3l6 2v1s-1 2-3 2l-2 2 1 2c0 1 2 2 4 3 7 3 16-3 15-10v-4h1s1 0 2 1l1 1v3c-3 9-13 15-22 12zm-60-21c5-17 27-18 33-3l2 4c0 1-3 0-5 0-4-1-21-1-27 1h-3zm47-1c1-1 2-4 4-6 8-10 24-8 29 4l2 4c0 1-3 0-5 0-4-1-21-1-27 1h-3z" fill="#97b064"/><path d="m1 327v-326h353v326zm184-20c6 0 24-1 40-2s33-2 39-3c10-1 24-5 30-8 9-5 19-17 25-30 8-16 11-35 10-63-1-10-1-24-1-31-1-8-1-20-2-28-1-15 0-54 1-57 1 0 3-2 4-3 8-4 12-10 12-18 0-20-26-28-36-11-6 9-5 17 4 26 4 4 5 6 6 10 1 7-1 27-2 31l-2 4s-2-1-4-2c-5-2-11-3-18-1-5 2-6 2-7 1-1-2-3-13-3-24 0-12 1-15 4-16 4-2 10-8 11-13 2-9-2-19-10-23-14-7-29 3-29 18 0 3 0 7 1 9 2 3 7 7 11 10 1 1 2 2 2 18 0 12 0 22-1 32-1 7-2 20-2 29v15l-3 2c-4 1-12 1-14 0h-2l1-7c1-14-5-37-13-52-12-21-35-39-57-45-16-4-38-5-56-3-37 5-66 25-82 58-6 13-9 22-10 35-1 31 12 60 35 78 4 3 7 6 7 6v1l-5 1c-15 3-23 14-16 20l2 2c0 1-6 3-13 6-23 9-29 13-29 19v2h4c2 0 7 1 12 3 10 3 20 3 36 1 10-1 12-1 18 0 14 4 15 4 28 3 26-4 28-4 39 0 5 2 11 2 35 0zm-37-4c-7-3-16-3-32 0s-18 3-30-1c-9-2-10-2-21-1-15 1-29 1-37-1l-5-2v-2h7c3 0 10 0 14 1 7 1 8 1 21-2 16-4 19-4 28 0 9 3 10 3 23-1 13-3 19-3 29 1 10 3 15 3 27 0 9-2 10-2 20-1 9 1 12 1 19 0 13-3 14-3 38-4 27 0 39-2 52-8l2-1h1v1l-2 2c-5 6-17 11-33 14-9 2-28 4-53 5-11 0-27 1-35 2-21 1-26 1-33-2zm-5-46c-2-3-3-8-1-11l5-5c3-2 4-2 9-2 4 0 5 0 8 2 1 2 3 5 4 7l1 4-2 2c-2 2-16 6-20 6-2 0-3-1-4-3zm-58-5c-7-4-15-10-15-11s1-3 2-4c7-9 21-8 25 2 2 4 2 5 1 8-1 4-5 8-6 8s-4-1-7-3zm33-8c-3-2-4-8-1-12 1-2 2-2 6-1 6 0 8 2 8 6 0 7-8 11-13 7zm24-21c-3-3-3-6-2-10 4-6 13-7 17-3 2 4 1 7-5 11-3 2-7 4-7 4-1 0-2-1-3-2zm23-3c-3-2-2-5 0-8l3-3 3 1c3 1 4 3 4 6 0 5-7 8-10 4zm4-5 2-2-1-1-2 2c-1 1-2 3-2 3v1h1s2-1 2-3zm-97 3c-8-6-3-20 8-20 2 0 3 1 5 5 4 7 4 11 0 14-3 2-10 3-13 1zm118-2c-4-2-6-7-6-12 0-7 8-13 14-11s7 6 4 16c-1 6-2 6-7 8-1 0-3-1-5-1zm-71-6c-3-3-2-8 3-10 4-1 7 1 7 5 0 3-1 4-4 6-3 1-4 1-6-1zm89-1c-2-1-2-2-1-7 1-4 1-9 1-12v-5h3c4-1 10 1 11 3 2 3 2 12 1 16-1 2-3 4-4 4-3 2-9 2-11 1zm-166-10c-2-1-3-2-4-5-2-7-3-15-3-21 0-7 2-9 8-11 8-2 14 1 18 9 4 7 4 12 0 19s-13 11-19 9zm45-2c-2-2-4-10-4-15 0-3 4-5 10-5 3 0 5 1 7 3 3 2 3 4 3 8s0 5-2 7c-4 3-12 4-14 2zm56-4c-1-3-1-6 2-8 1-2 6-2 8-1 2 2 1 8-1 9-2 3-8 2-9 0zm27-6c-1-3-2-6-1-6 0-1 1-1 3-1h3l1 3c1 2 2 4 1 5 0 2-3 4-5 4h-1zm-54-4c-3-1-3-7 0-9 2-2 6-3 7-1v1l-1 1c0 1-1 3-2 5-1 4-2 4-4 3zm37-16c-1 0-3 0-6-1h-5l-1-3c0-4 2-7 7-7 2 0 4 0 5 1 2 1 4 7 3 10v1h-1c-1 0-2 0-2-1zm24-1c-2-1-4-3-4-4-2-4 0-10 3-13s9-5 12-4c1 0 9 12 9 14 0 1-2 3-4 5-3 3-5 4-8 4s-6-1-8-2zm-100-5c-8-2-9-14-2-19 4-3 10-2 13 0l2 3-4 8-4 9h-1c-1 0-3-1-4-1zm147-1c-6-4-7-7-8-15 0-8 2-13 8-17 4-2 10-4 11-3 3 1 11 24 11 30s-15 9-22 5zm-38-21-8-8 1-3c2-3 9-7 14-7 9 0 16 10 11 19-1 4-6 8-8 8-1 0-5-4-10-9zm-64 2c-5-5-5-13 0-16 4-2 17-3 18-1 3 2 3 11 0 14-5 7-13 8-18 3zm-12-20c-2-6-1-12 4-15 11-6 23-1 22 10v4h-7c-4 1-9 2-11 2-2 1-4 2-5 2h-2zm-33 0c-5-1-10-3-11-5s-2-5-2-7c-1-4-1-5 4-9 2-3 7-7 11-9l6-4 4 2c5 4 8 9 8 16 0 10-10 19-20 16zm6-28c2-1 3-2 3-2v-1l-3 2c-8 5-18 14-18 16v1l7-7c4-4 9-8 11-9zm70 16c-10-5-13-18-7-28 5-7 5-8 17-6 6 1 11 2 13 3 3 2 4 7 4 15-1 8-3 13-9 16-5 2-13 3-18 0zm119-28c-6-2-13-9-13-14v-2l5-1c4-1 5-1 9 2l5 3-3 2c-2 1-4 3-4 3 0 2 6 5 8 5 6 0 12-6 12-12v-3h1c3 0 2 7-2 11-5 6-11 8-18 6zm47 0c-6-2-13-9-13-14v-2h3c2-1 4-1 5-2h2v3l6 2v1s-1 2-3 2l-2 2 1 2c0 1 2 2 4 3 7 3 16-3 15-10v-4h1s1 0 2 1l1 1v3c-3 9-13 15-22 12z" fill="#db985c"/><path d="m1 327v-326h353v326zm184-20c6 0 24-1 40-2s33-2 39-3c10-1 24-5 30-8 9-5 19-17 25-30 8-16 11-35 10-63-1-10-1-24-1-31-1-8-1-20-2-28-1-15 0-54 1-57 1 0 3-2 4-3 8-4 12-10 12-18 0-20-26-28-36-11-6 9-5 17 4 26 4 4 5 6 6 10 1 7-1 27-2 31l-2 4s-2-1-4-2c-5-2-11-3-18-1-5 2-6 2-7 1-1-2-3-13-3-24 0-12 1-15 4-16 4-2 10-8 11-13 2-9-2-19-10-23-14-7-29 3-29 18 0 3 0 7 1 9 2 3 7 7 11 10 1 1 2 2 2 18 0 12 0 22-1 32-1 7-2 20-2 29v15l-3 2c-4 1-12 1-14 0h-2l1-7c1-14-5-37-13-52-12-21-35-39-57-45-16-4-38-5-56-3-37 5-66 25-82 58-6 13-9 22-10 35-1 31 12 60 35 78 4 3 7 6 7 6v1l-5 1c-15 3-23 14-16 20l2 2c0 1-6 3-13 6-23 9-29 13-29 19v2h4c2 0 7 1 12 3 10 3 20 3 36 1 10-1 12-1 18 0 14 4 15 4 28 3 26-4 28-4 39 0 5 2 11 2 35 0zm-141-7-1-2 5 1c3 0 5 0 6-1s23-6 28-6c2 0 7 1 11 3 9 3 10 3 23-1 13-3 19-3 29 1 10 3 15 3 27 0 9-2 10-2 20-1 9 1 12 1 19 0 13-3 14-3 38-4 27 0 39-2 52-8l2-1h1v1l-2 3c-4 4-11 7-21 11-9 2-9 2-46 2-30 0-40 0-52 2-14 1-16 1-26 0-6-1-13-3-14-4-6-2-13-1-28 2-13 2-13 2-24 0-12-2-17-2-22-1h-3v1l1 1h-6c-4 0-7 0-7 1-1 1-3 1-6 1h-4zm98-43c-2-2-2-8 0-11l5-5c3-2 4-2 9-2 4 0 5 0 8 2 2 2 3 4 3 5v2h-1c-1 0-5 2-9 4-4 1-8 3-10 3h-2v3h-1s-1-1-2-1zm-47-9s-2-2-5-4c-3-1-7-3-9-5-2-1-5-2-6-3h-2l-1 3-1 2 3 3 4 3-4-3c-5-3-5-4-2-7 8-10 24-7 27 6 0 2 0 3-2 4l-2 2zm23-4c-2-2-3-3-3-6 0-2 1-4 1-5l2-1 2 1c1 2 3 2 6 2h5v2c0 4-4 8-8 9-2 0-3 0-5-2zm24-21c-3-3-3-6-2-10 4-6 13-7 17-3 2 4 1 7-5 11-3 2-7 4-7 4-1 0-2-1-3-2zm23-3c-3-2-2-5 0-8l3-3 3 1c3 1 4 3 4 6 0 5-7 8-10 4zm4-5 2-2-1-1-2 2c-1 1-2 3-2 3v1h1s2-1 2-3zm-97 3c-8-6-3-20 8-20 2 0 3 1 5 5 4 7 4 11 0 14-3 2-10 3-13 1zm118-2c-4-2-6-7-6-12 0-7 8-13 14-11s7 6 4 16c-1 6-2 6-7 8-1 0-3-1-5-1zm-71-6c-3-3-2-8 3-10 4-1 7 1 7 5 0 3-1 4-4 6-3 1-4 1-6-1zm91-1c-1 0-1-2 0-3 0-2 1-6 2-11v-7h-1l-2 1v-4h2c4-1 10 1 11 3 2 3 2 12 1 16-1 2-3 4-4 4-3 2-9 3-9 1zm-165-10 3-3-1-8c-1-5-2-13-2-17v-7h-1l-2 1v-1c0-2 4-3 8-3 5 1 9 4 11 10 4 7 4 12 0 19-3 5-7 8-13 9l-3 1zm42-2c-2-2-4-10-4-15 0-3 4-5 10-5 3 0 5 1 7 3 3 2 3 4 3 8s0 5-2 7c-4 3-12 4-14 2zm56-4c-1-3-1-6 2-8 1-2 6-2 8-1 2 2 1 8-1 9-2 3-8 2-9 0zm32-2s0-2-1-4c0-2-1-4-1-5l-2-1h1c0-1 1-1 2-1h1l1 3c2 3 2 7 0 8zm-60-10c-2-2 1-8 3-8h1l-2 3c0 1-1 3 0 4v2h-1s-1 0-1-1zm62-15c-2-1-4-3-4-4-2-4 0-10 3-13s9-5 12-4c1 0 9 12 9 14 0 1-2 3-4 5-3 3-5 4-8 4s-6-1-8-2zm-23-3c-1-2-9-4-10-2l-2 1-1-1v-1l2-2c2-3 8-3 11 0 2 2 3 5 1 5l-1 1zm70-3c-6-4-7-7-8-15 0-8 2-13 8-17 4-2 10-4 11-3 3 1 11 24 11 30s-15 9-22 5zm-152-2c-4-4-2-13 3-16 3-2 9-2 11-1l1 2-3 3c-2 2-4 5-5 8l-1 4 2 1 2 2h-4c-2 0-4-1-6-3zm125-13 1-1-4-4c-5-6-12-11-14-10h-1v-1c0-2 3-5 7-6 11-5 19 1 19 12 1 5-3 11-6 11h-2zm-75-4c-5-5-5-13 0-16 4-2 17-3 18-1 3 2 3 11 0 14-5 7-13 8-18 3zm-12-20c-2-6-1-12 4-15 11-6 23-1 22 10v4h-7c-4 1-9 2-11 2-2 1-4 2-5 2h-2zm-34 0c-8-2-12-6-11-10 0-2 13-15 18-18 2-1 3-2 3-3v-1h1s1 0 2 1v1h1l1-1 1 2c5 5 6 14 4 20-3 4-7 8-11 9s-5 1-9 0zm77-12c-10-5-13-18-7-28 5-7 5-8 17-6 6 1 11 2 13 3 3 2 4 7 4 15-1 8-3 13-9 16-5 2-13 3-18 0zm119-28c-6-2-13-9-13-14v-2l5-1c4-1 5-1 9 2l5 3-3 2c-2 1-4 3-4 3 0 2 6 5 8 5 6 0 12-6 12-12v-3h1c3 0 2 7-2 11-5 6-11 8-18 6zm47 0c-6-2-13-9-13-14v-2h3c2-1 4-1 5-2h2v3l6 2v1s-1 2-3 2l-2 2 1 2c0 1 2 2 4 3 7 3 16-3 15-10v-4h1s1 0 2 1l1 1v3c-3 9-13 15-22 12z" fill="#f4c994"/><path d="m272 81c-6-2-13-9-13-14v-2l5-1c4-1 5-1 9 2l5 3-3 2c-2 1-4 3-4 3 0 2 6 5 8 5 6 0 12-6 12-12v-3h1c3 0 2 7-2 11-5 6-11 8-18 6zm47 0c-6-2-13-9-13-14v-2h3c2-1 4-1 5-2h2v3l6 2v1s-1 2-3 2l-2 2 1 2c0 1 2 2 4 3 7 3 16-3 15-10v-4h1s1 0 2 1l1 1v3c-3 9-13 15-22 12z" fill="#fff"/></g></g></g></svg>