<?xml version="1.0" encoding="UTF-8" standalone="no"?>
<!DOCTYPE svg PUBLIC "-//W3C//DTD SVG 1.1//EN" "http://www.w3.org/Graphics/SVG/1.1/DTD/svg11.dtd">
<svg width="100%" height="100%" viewBox="0 0 520 520" version="1.1" xmlns="http://www.w3.org/2000/svg" xmlns:xlink="http://www.w3.org/1999/xlink" xml:space="preserve" xmlns:serif="http://www.serif.com/" style="fill-rule:evenodd;clip-rule:evenodd;stroke-linejoin:round;stroke-miterlimit:2;">
    <g transform="matrix(1,0,0,1,-187,-3468)">
        <g id="Favicon" transform="matrix(2.00779,0,0,2.00779,-189.461,-3495.84)">
            <rect x="187.5" y="3468.41" width="258.991" height="258.991" style="fill:none;"/>
            <clipPath id="_clip1">
                <rect x="187.5" y="3468.41" width="258.991" height="258.991"/>
            </clipPath>
            <g clip-path="url(#_clip1)">
                <g transform="matrix(1.95421,0,0,1.95421,-2764,2699.81)">
                    <path d="M1535.87,529.748L1553.03,516.196L1552.93,468.568L1549.68,461.91L1549.68,450.256L1563.17,450.256L1563.17,454.505L1569.31,454.505L1569.31,449.937L1581.72,449.937L1581.72,454.306L1585.29,454.306L1585.29,449.614L1589.12,449.614L1589.12,413L1592.29,413L1592.29,450.802L1598.58,450.802L1600.43,448.952L1605,448.952L1607.7,454.205L1607.7,483.013L1600.11,491.357L1600.11,563.825" style="fill:rgb(204,50,50);"/>
                </g>
            </g>
        </g>
    </g>
</svg>
