<svg clip-rule="evenodd" fill-rule="evenodd" stroke-linejoin="round" stroke-miterlimit="2" viewBox="0 0 500 500" xmlns="http://www.w3.org/2000/svg"><path d="m376.654 207.243c8.315 10.546 13.24 23.627 13.24 37.788v103.595c0 34.902-29.921 63.237-66.774 63.237h-212.858c-36.861 0-66.787-28.341-66.787-63.25v-103.595c0-14.129 4.903-27.182 13.185-37.714 4.22-5.367 9.317-10.079 15.089-13.946 10.883-7.291 24.167-11.577 38.5-11.577h212.857c14.301 0 27.559 4.266 38.43 11.527 5.782 3.861 10.888 8.57 15.118 13.935zm-304.841 14.402c-4.587 6.745-7.249 14.773-7.249 23.386v103.595c0 23.879 20.471 43.266 45.685 43.266h212.857c25.222 0 45.699-19.393 45.699-43.279v-103.595c0-8.633-2.676-16.679-7.284-23.434l-97.604 92.492c-26.046 24.682-68.364 24.682-94.442 0zm274.494-13.906c-6.799-3.803-14.726-5.986-23.187-5.986h-212.858c-8.495 0-16.453 2.2-23.271 6.031l97.386 92.17c17.843 16.887 46.798 16.887 64.619 0z" fill="#fff" transform="matrix(1.40268 0 -.00093139 1.48113 -53.6629 -189.632)"/></svg>