<svg clip-rule="evenodd" fill-rule="evenodd" stroke-linecap="round" stroke-linejoin="round" stroke-miterlimit="1.5" viewBox="0 0 343 343" xmlns="http://www.w3.org/2000/svg"><g transform="matrix(.445832 0 0 1.0042 -44.0554 -304.905)"><path d="m98.816 303.629h767.554v340.778h-767.554z" fill="none"/><g transform="matrix(4.26945 0 0 1.89549 -513.134 -480.498)"><path d="m231.297 448.835c8.567.078 13.527-7.66 27.851-2.16 14.325 5.499 25.114 21.409 25.633 24.866s-.832 12.574-.832 17.653 13.398 20.65 13.572 33.898c.173 13.248-9.01 26.322-32.846 34.918-5.562 10.273-15.278 20.924-39.241 20.556-23.964-.369-27.122-4.935-30.92-7.532-3.798-2.596-4.32-10.623-10.585-14.519-6.264-3.896-17.443-14.021-20.454-23.851s-8.768-20.487 5.33-44.185c.395-15.986 4.652-33.037 14.34-40.037 9.688-7.001 17.783-13.322 28.527-12.167s11.058 12.483 19.625 12.56z" fill="#a72638" stroke="#000" stroke-width="1.75"/><path d="m160.366 471.838c1.706.445 8.719.224 12.182.723 1.776.256 3.444 1.434 4.778 2.802 1.145 1.175 2.043 2.468 2.566 3.292 3.787-1.804 19.438-9.367 30.551-16.364 5.278-3.323 9.54-6.463 10.827-8.799 4.512-8.187 8.68-12.986 8.68-12.986-.038.043-.071.089-.101.137l1.47-2.375.358 3.361s-.021.4.162.846c.435 1.059 1.646 2.645 4.606 4.89 3.476 2.636 4.898 4.404 5.419 6.207.513 1.772.131 3.635-.236 6.578-.023.181.057.393.166.645.175.401.452.853.81 1.35 1.197 1.661 3.255 3.754 5.763 6.041 9.002 8.209 23.745 18.798 26.513 20.77 1.144-.434 2.476-2.807 5.543-3.515 2.763-.638 7.209.349 9.369.806 5.09 1.079 11.07 2.317 11.07 2.317.369.076 2.487-.374 2.601-.015.113.359-1.795 1.473-2.053 1.748 0 0-2.354 2.51-6.833 6.475-3.901 3.453-10.577 5.257-12.526 5.728-1.558 3.852-11.622 28.975-13.682 40.356-.262 1.451-.395 2.663-.343 3.556.017.282.05.524.113.721.015.047.047.113.064.147 5.106 1.992 8.124 4.623 8.906 10.84.749 5.961-.716 11.894-.716 11.894-.095.387-.402.685-.791.769s-.791-.061-1.038-.373c0 0-2.251-2.713-10.273-4.517-3.59-.807-6.89-3.215-9.54-5.844-3.087-3.063-5.288-6.4-6.054-7.628-4.236-.216-31.943-1.529-43.557.475-1.473.254-2.673.556-3.501.934-.258.118-.473.239-.634.375-.052.043-.117.122-.136.146.001 3.182-2.244 5.762-5.072 7.261-2.808 1.49-6.139 1.864-8.176.919-3.388-1.572-4.361-1.592-10.412.01-.397.105-.819-.032-1.077-.351s-.305-.76-.119-1.126c1.548-3.058.866-4.634.68-6.122-.166-1.325-.08-2.607 1.354-4.387 2.489-3.089 8.257-7.498 10.172-8.925-1.698-4.741-11.342-31.435-17.393-43.284-.965-1.889-1.831-3.391-2.557-4.34-.206-.27-.395-.489-.572-.649-.07-.063-.118-.125-.175-.141-1.553-.44-2.593-1.074-3.307-1.839-.859-.92-1.267-2.044-1.439-3.364-.147-1.127-.119-2.412-.133-3.831-.018-1.821-.839-3.688-1.69-5.507-.96-2.053-1.968-4.05-2.258-5.852-.08-.496.205-.978.678-1.147.345-.123.719-.053.993.162z" fill="#60b94b"/><path d="m279.635 505.749c1.012-2.569 1.655-4.143 1.655-4.143s8.996-1.977 13.381-5.956c4.405-3.996 5.106-5.486 7.485-6.765-3.161.605-7.488-.54-12.58-1.619s-8.355-1.876-14.842 2.864-34.828-24.597-34.14-30.109c.688-5.513 1.624-6.971-4.778-11.826s-4.819-7.689-4.819-7.689-2.437 5.505-8.815 13.489c-5.752 7.202-42.697 26.005-42.697 26.005s-3.181-5.846-7.085-6.408c-3.905-.563-13.14-.822-13.542-1.515 2.419 3.439 4.805 8.174 4.827 12.095.046 8.496 5.3 8.174 6.914 12.469 1.877 4.992 5.186 9.475 10.166 22.146-6.145-11.315-14.455-23.38-16.741-25.435-4.157-3.738-2.824-8.601-3.334-11.529-1.358-5.686-1.598-7.536-6.896-12.776 6.902 2.2 10.842 1.922 13.613 1.982 13.278.289 9.157 4.989 14.965 6.432 5.807 1.442 31.359-19.19 39.386-27.964 8.026-8.774 8.339-12.716 5.865-21.967.692.591 2.312 2.125 4.298 6.192 1.987 4.066-1.249 9.333 7.147 13.393 6.831 3.304 4.296 14.374 4.296 14.374l29.742 25.209s5.92-5.272 19.569-1.479c13.65 3.792 12.999-1.169 19.975 4.524-6.95-1.825-8.27-.735-13.477 5.261-5.208 5.997-11.604 7.792-19.293 10.641-.083.031-.165.066-.245.104zm-92.339 33.322c.432-.434 2.164 2.937 2.164 2.937s-7.653 5.541-10.602 9.201.422 5.309-2.414 10.908c6.087-2.584 7.998-2.209 11.615-.531s11.792-1.642 11.768-7.257 49.474-2.919 49.474-2.919 6.705 11.552 15.219 13.467c8.514 1.914 11.78 5.38 11.78 5.38s.5-6.237-.225-12.007-3.557-8.179-8.312-10.023c-3.021-1.172 3.257-19.673 8.237-33.011-1.095 11.852-6.671 28.061-3.99 30.269 6.751 5.558 6.64 13.173 6.527 21.974-.112 8.8 6.017 12.155 6.017 12.155s-5.636-2.386-10.882-7.625c-3.402-3.397-9.578-3.954-13.283-5.499-8.125-3.389-8.842-8.211-16.634-13.542s-39.231 1.428-43 6.363-9.328 6.231-14.538 3.77c-3.443-1.626-8.708.74-11.008 3.116-3.104 3.206-5.866 6.811-6.692 9.329.74-5.017 2.078-7.634 3.643-10.348 1.079-1.87 3.748-5.339 3.08-11.107-.541-4.672 6.825-9.754 12.056-15z"/><path d="m199.483 457.887c7.908-4.787 4.368-12.32 13.46-11.629 9.092.69 12.457 22.615 7.372 46.173-28.884.819-42.154-3.794-41.495-20.759.658-16.964 12.754-8.999 20.663-13.785zm59.041-4.883c8 3.403 3.479 10.555 10.312 16.363 7.166 6.091 13.379 10.81 6.946 21.671-9.2 15.53-49.571-3.346-49.571-3.346 10.516-30.289 24.312-38.09 32.313-34.688zm19.95 71.748c-3.791 9.425 2.339 19.317-6.125 22.679-15.514 6.16-19.791-23.444-33.842-30.982-11.495-6.166-4.302-15.188 4.677-12.877s14.177 2.867 22.765-2.364c8.587-5.231 17.173-4.186 20.346.787 9.351 14.653-4.03 13.332-7.821 22.757zm-55.784 33.859c-6.366-.195-8.358 3.252-12.891 4.222-4.532.969-9.369-.325-11.823-7.855-2.455-7.531 18.418-25.707 22.565-29.985 4.146-4.278 28.983-6.733 22.491-2.3-7.552 5.158 3.446 13.616 9.677 17.771 9.152 6.103 5.058 15.788 2.666 18.759-2.392 2.97-11.25 9.133-16.567 8.684-5.316-.45-9.752-9.1-16.118-9.296zm-43.894-40.954c-.802-7.018-8.494-10.254-8.466-18.117s4.508-9.303 14.285-6.195c9.777 3.109 28.931 15.759 28.931 15.759s13.162-2.35.819 12.8-27.006 29.016-37.287 18.552c-7.223-7.352 2.52-15.78 1.718-22.799z" fill="#df3b53" stroke="#000" stroke-width="1.53"/><path d="m214.518 527.747c1.32.01-.548 3.929 3.172 3.963 3.72.035 3.972-3.054 5.804-2.619 1.831.434 3.632 3.766 5.865 2.494 2.233-1.271 2.736-4.978 4.792-3.688 2.057 1.29 5.737 1.167 6.544-.747.807-1.915 1.124-1.666 3.064-1.873 1.94-.208 3.868-2.072 2.626-4.453s.061-2.802 1.26-4.076c1.2-1.275 1.656-3.916-.215-5.18-1.87-1.264 2.133-2.085 2.681-4.211.547-2.127-.996-1.991-1.766-2.61-.771-.619-.373-1.754.66-3.204 1.032-1.449 1.692-1.994.787-3.657-.904-1.663-1.667-2.934-3.596-3.041-1.929-.108-1.011-1.93-1.82-3.578-.81-1.647-2.531 1.408-4.318.33s-1.141-2.72-2.554-4.463c-1.414-1.743-2.518 2.399-4.282 1.058-1.765-1.342-2.598-2.984-4.599-3.001-2-.017-3.518.142-5.169-1.945s-3.662-2.936-5.342-1.854c-1.68 1.081-2.214 3.926-2.427 4.816-.213.891-.564-.401-2.351-.355-1.786.046-4.748.641-5.057 2.509s2.126 4.787-.586 4.019c-2.712-.769-4.508-.199-5.238 1.394-.731 1.593.603 3.676 1.803 4.89 1.2 1.213 2.807 3.18 1.316 2.961s-3.468-1.162-4.277-.087c-.809 1.076-.575 2.597.587 4.117 1.161 1.52 3.96 3.136 2.067 3.732-1.892.595-4.604 3.694-3.142 4.652s2.08 2.388 3.871 2.443c1.79.055-.36.854-.311 2.249.05 1.395.056 3.427 2.821 3.393 2.765-.035 2.119 1.241 2.119 2.875s.146 4.009 2.068 4c1.921-.01 1.824-1.262 3.143-1.253z"/><path d="m235.423 514.611c-1.618 1.162-6.24 4.921-3.962 7.329 2.279 2.408 2.586-1.2 3.15-2.213s2.079-.268 2.614 1.385c.534 1.654.861 6.604-1.583 4.704-2.443-1.899-3.959-.596-4.691.053s-3.593 4.909-3.332 2.549c.26-2.36 1.088-3.125.34-4.561-.749-1.435-2.244-3.387-4.28-3.048-2.037.34-4.296 2.033-3.85 3.463.446 1.429 1.225.588 1.768-.455.542-1.043 1.656-1.104 1.638.182s-2.304 2.333-3.467 3.601c-1.162 1.269-.578 1.206-2.662-.988-2.085-2.194-2.357-3.6-3.496-2.432s-3.213 2.362-2.478.59c.734-1.773 1.672-3.131 3.444-2.79 1.771.341 2.702 4.373 3.384 2.804s-1.188-3.278.472-4.524 2.676-3.035 3.908-2.671c1.232.363 2.518 2.648 2.504 1.23-.014-1.417-.26-3.044-1.538-3.976-1.277-.933-1.737-3.223-3.25-1.747-1.513 1.477-2.432 3.914-4.095 5.112s-4.779 1.429-4.965.442c-.185-.986 1.63-.02 2.99-1.075 1.359-1.056 2.721-3.162 2.469-4.544s-.769-3.45-2.129-3.528c-1.359-.078-2.919-.081-3.947.689-1.029.771-3.506 2.178-2.246 2.534 1.259.356 3.423-.815 4.218-.239.796.575-.454 2.061-2.1 1.979-1.645-.081-5.157-.976-5.048-2.036.108-1.061 3.837-1.678 2.838-3.051s-5.722-6.491-4.056-5.807c1.665.684 5.117 5.449 6.012 4.979.896-.47 4.13-2.375 5.364-1.194 1.235 1.18 1.594 6.208 3.214 3.456 1.621-2.752 1.86-3.005-.414-5.157s-1.988-2.278-4.644-2.084c-2.655.194-4.293-.895-4.584-3.358s-2.255-2.33-1.269-3.088c.986-.759 2.007-.276 2.714.181.708.458-.295.861.284 2.386.58 1.525.81 2.549 2.492 1.579 1.683-.97 4.209-2.83 3.172-4.554s-2.739-3.577-4.134-5.005-1.498-3.674.431-2.649c1.93 1.024 2.86 3.822 3.807 4.426.947.605 2.112 1.422 3.408.255 1.295-1.167 1.45-.68.619.16-.831.841-2.358 1.14-2.358 2.155s-.352 2.966 1.198 1.551 3.835-1.257 3.75.131-1.383 2.059-3.086 1.879c-1.702-.18-2.665-.596-3.028.484-.364 1.08-1.096 1.999.644 1.954s2.575 1.35 4.03 1.513 1.551-.123 2.595-.987c1.043-.863 3.401-2.647 3.249-4.682-.151-2.035-.075-2.625-1.35-3.772-1.276-1.147-2.591-1.048-3.848-.482-1.256.566-1.069-1.549 1.336-2.18 2.406-.63 1.526-1.572-1.021-1.623-2.547-.05-1.88-.551-3.07-2.454-1.189-1.903-1.079-2.379-.124-2.99.956-.61 2.433.362 2.852 1.581.42 1.22 1.513 1.97 3.082 1.834 1.57-.135 4.273-.395 3.315 1.515-.957 1.911-1.886 2.514 0 4.846 1.886 2.333 4.723 2.674 5.266 1.622s-2.516.32-2.601-1.739.229-2.158 1.934-2.954c1.704-.796 3.096-2.083 3.341-.333s.727 2.796 1.617 3.653c.891.858 2.161 2.461-.436 2.918-2.598.456-5.064-.583-6.623.34-1.559.924-4.251 2.397-4.222 3.682.03 1.285.484 3.288 1.086 1.608s-.227-1.679 2.202-2.222 2.715-1.547 3.035-.102.503 5.467-1.385 5.005-1.45-.74-.625-2.084.873-2.659-1.025-1.145c-1.899 1.513-2.222 1.82-1.564 3.229.659 1.41 1.759 1.995.62 2.819s-4.049 2.306-1.985 2.426c2.064.121 2.56-.04 2.929 1.197.369 1.238-.938 1.449-2.105 2.364s-1.716 1.586-1.623 3.225c.092 1.64-1.413 1.726.897 3.35 2.309 1.625 4.011 3.982 3.306 1.805-.706-2.177-1.249-1.998-.475-3.909s3.601-3.581 3.6-4.561c-.002-.98.821-.947-.036-2.65-.857-1.702-2.763-2.841-1.653-3.829 1.109-.988 2.258-1.945 2.432-3.223s1.135-2.465.386-3.535.228-.321 1.494-.439c1.266-.119 3.52-.562 4.098-1.315s1.99-3.131 2.778-1.762c.788 1.37 2.86 2.745 1.116 2.926-1.743.182-3.06.406-3.112 1.241-.053.835 1.253 1.792 1.915 1.786s1.203 2.812-.433 1.088c-1.636-1.725-3.261-.929-4.285-1.088-1.025-.16-2.922 2.909-3.327 3.785-.406.875-1.54.342-1.161 1.092s.871 1.668 1.135 2.563c.264.894 1.923 2.152 3.334.901s2.821-1.385 1.795-1.994c-1.026-.61-.703.154-2.056.193-1.354.039-1.905-1.592-1.129-2.755.776-1.164 1.867-.971 2.715 0 .848.97-.144 1.243 1.117 2.366 1.261 1.122 2.05 3.635 3.111 3.542 1.062-.093.904 1.679.037 2.451-.866.771-3.231-2.258-2.636-.698.594 1.56 1.527 2.735 1.919 4.126.391 1.39.867 3.435-.19 1.976-1.056-1.459-2.414-4.331-3.675-5.157-1.262-.827-2.435-2.514-4.053-1.352z" fill="#f0e60b"/></g></g></svg>